<?xml version="1.0" standalone="no"?>
<!DOCTYPE svg PUBLIC "-//W3C//DTD SVG 20010904//EN"
 "http://www.w3.org/TR/2001/REC-SVG-20010904/DTD/svg10.dtd">
<svg version="1.0" xmlns="http://www.w3.org/2000/svg"
 width="500.000000pt" height="500.000000pt" viewBox="0 0 500.000000 500.000000"
 preserveAspectRatio="xMidYMid meet">
<metadata>
Created by potrace 1.11, written by Peter Selinger 2001-2013
</metadata>
<g transform="translate(0.000000,500.000000) scale(0.100000,-0.100000)"
fill="#000000" stroke="none">
<path d="M0 2500 l0 -2500 2500 0 2500 0 0 2500 0 2500 -2500 0 -2500 0 0
-2500z m1797 1410 c157 -26 327 -92 456 -177 73 -48 240 -200 235 -213 -2 -4
-79 -74 -172 -154 l-170 -146 -50 48 c-96 93 -195 147 -323 176 -298 67 -612
-82 -748 -356 -59 -120 -79 -213 -72 -339 14 -276 194 -513 459 -606 98 -35
253 -43 362 -18 130 28 227 84 333 191 l93 92 192 -110 c106 -61 195 -113 197
-114 9 -7 -98 -143 -164 -208 -138 -137 -325 -243 -512 -293 -132 -34 -356
-43 -486 -19 -443 84 -790 408 -904 844 -33 130 -42 329 -20 457 76 431 381
782 788 906 151 46 362 62 506 39z m1708 -561 c496 -61 897 -443 986 -939 19
-106 16 -306 -6 -410 -85 -411 -381 -740 -775 -864 -347 -110 -731 -45 -1020
171 -25 19 -77 66 -117 105 l-72 70 132 115 c73 63 151 131 174 150 l43 35 63
-59 c72 -67 191 -133 287 -159 79 -21 242 -24 320 -5 30 7 97 33 149 58 128
61 236 168 299 293 56 113 72 182 72 310 0 123 -16 196 -65 295 -88 179 -251
312 -445 362 -86 22 -244 21 -330 -2 -135 -35 -293 -141 -370 -247 l-27 -37
-184 106 c-101 58 -190 111 -198 118 -33 32 175 257 329 358 227 147 489 208
755 176z"/>
</g>
</svg>
