<!-- Generator: Adobe Illustrator 19.2.1, SVG Export Plug-In  -->
<svg version="1.1"
	 xmlns="http://www.w3.org/2000/svg" xmlns:xlink="http://www.w3.org/1999/xlink" xmlns:a="http://ns.adobe.com/AdobeSVGViewerExtensions/3.0/"
	 x="0px" y="0px" width="393.9px" height="57.6px" viewBox="0 0 393.9 57.6" enable-background="new 0 0 393.9 57.6"
	 xml:space="preserve">
<defs>
</defs>
<g id="colectivas_1_">
	<g>
		<path fill="#2E2E2E" d="M215.2,28.6c0-1.3,0.2-2.5,0.7-3.8c0.4-1.3,1.1-2.4,2-3.4s1.9-1.8,3.2-2.4c1.3-0.6,2.7-0.9,4.3-0.9
			c1.9,0,3.5,0.4,4.9,1.3s2.4,2,3,3.3l-2.1,1.4c-0.3-0.7-0.7-1.2-1.2-1.7c-0.4-0.5-0.9-0.8-1.5-1.1c-0.5-0.3-1.1-0.5-1.6-0.6
			c-0.6-0.1-1.1-0.2-1.6-0.2c-1.2,0-2.2,0.2-3.1,0.7s-1.7,1.1-2.3,1.9c-0.6,0.8-1.1,1.7-1.4,2.7s-0.5,2-0.5,3c0,1.1,0.2,2.2,0.6,3.2
			s0.9,1.9,1.5,2.7c0.7,0.8,1.4,1.4,2.3,1.9s1.9,0.7,2.9,0.7c0.6,0,1.1-0.1,1.7-0.2s1.2-0.4,1.7-0.7c0.5-0.3,1-0.7,1.5-1.2
			s0.9-1,1.2-1.7l2.2,1.2c-0.3,0.8-0.8,1.5-1.4,2.1s-1.3,1.1-2.1,1.5c-0.8,0.4-1.6,0.7-2.4,1c-0.9,0.2-1.7,0.3-2.5,0.3
			c-1.5,0-2.8-0.3-4-1c-1.2-0.6-2.3-1.5-3.2-2.5c-0.9-1-1.6-2.2-2.1-3.5C215.4,31.3,215.2,30,215.2,28.6z"/>
		<path fill="#2E2E2E" d="M245.3,39.5c-1.5,0-2.9-0.3-4.1-0.9s-2.3-1.4-3.2-2.4c-0.9-1-1.6-2.2-2-3.5c-0.5-1.3-0.7-2.6-0.7-4
			s0.3-2.8,0.8-4.1c0.5-1.3,1.2-2.4,2.1-3.4s2-1.8,3.2-2.4s2.6-0.9,4-0.9c1.5,0,2.8,0.3,4.1,0.9c1.2,0.6,2.3,1.5,3.1,2.5
			c0.9,1,1.6,2.2,2,3.5s0.7,2.6,0.7,3.9c0,1.4-0.3,2.8-0.8,4.1c-0.5,1.3-1.2,2.4-2.1,3.4s-1.9,1.8-3.2,2.4S246.7,39.5,245.3,39.5z
			 M238,28.8c0,1.1,0.2,2.1,0.5,3.1s0.8,1.9,1.5,2.7s1.4,1.4,2.3,1.9c0.9,0.5,1.9,0.7,3,0.7s2.2-0.2,3-0.7s1.7-1.1,2.3-1.9
			s1.1-1.7,1.4-2.7c0.3-1,0.5-2,0.5-3c0-1.1-0.2-2.1-0.5-3.1s-0.8-1.9-1.5-2.7c-0.6-0.8-1.4-1.4-2.3-1.8c-0.9-0.5-1.9-0.7-2.9-0.7
			c-1.1,0-2.2,0.2-3,0.7c-0.9,0.5-1.7,1.1-2.3,1.9s-1.1,1.7-1.4,2.7C238.2,26.7,238,27.7,238,28.8z"/>
		<path fill="#2E2E2E" d="M259,39.4V18.2h2.7V37h11.8v2.4H259z"/>
		<path fill="#2E2E2E" d="M290.9,37v2.4h-14.4V18.2h14.1v2.4h-11.4v6.9h10v2.2h-10V37L290.9,37L290.9,37z"/>
		<path fill="#2E2E2E" d="M292.8,28.6c0-1.3,0.2-2.5,0.7-3.8c0.4-1.3,1.1-2.4,2-3.4s1.9-1.8,3.2-2.4s2.7-0.9,4.3-0.9
			c1.9,0,3.5,0.4,4.9,1.3s2.4,2,3,3.3l-2.1,1.4c-0.3-0.7-0.7-1.2-1.2-1.7c-0.4-0.5-0.9-0.8-1.5-1.1c-0.5-0.3-1.1-0.5-1.6-0.6
			c-0.6-0.1-1.1-0.2-1.6-0.2c-1.2,0-2.2,0.2-3.1,0.7c-0.9,0.5-1.7,1.1-2.3,1.9s-1.1,1.7-1.4,2.7c-0.3,1-0.5,2-0.5,3
			c0,1.1,0.2,2.2,0.6,3.2c0.4,1,0.9,1.9,1.5,2.7c0.7,0.8,1.4,1.4,2.3,1.9c0.9,0.5,1.9,0.7,2.9,0.7c0.6,0,1.1-0.1,1.7-0.2
			c0.6-0.1,1.2-0.4,1.7-0.7c0.5-0.3,1-0.7,1.5-1.2s0.9-1,1.2-1.7l2.2,1.2c-0.3,0.8-0.8,1.5-1.4,2.1c-0.6,0.6-1.3,1.1-2.1,1.5
			s-1.6,0.7-2.4,1c-0.9,0.2-1.7,0.3-2.5,0.3c-1.5,0-2.8-0.3-4-1c-1.2-0.6-2.3-1.5-3.2-2.5s-1.6-2.2-2.1-3.5
			C293,31.3,292.8,30,292.8,28.6z"/>
		<path fill="#2E2E2E" d="M329.9,20.6h-7.3v18.8h-2.7V20.6h-7.3v-2.4h17.3V20.6z"/>
		<path fill="#2E2E2E" d="M332.9,39.4V18.2h2.7v21.2H332.9z"/>
		<path fill="#2E2E2E" d="M341.3,18.2l7,17.8l7-17.8h2.8l-8.7,21.2h-2.3l-8.7-21.2H341.3z"/>
		<path fill="#2E2E2E" d="M365.7,18.2h2.3l8.7,21.2h-2.9l-2.5-6.2h-8.9l-2.5,6.2H357L365.7,18.2z M370.7,31.1l-3.8-9.8l-3.9,9.8
			H370.7z"/>
		<path fill="#2E2E2E" d="M391.7,22.6c-0.2-0.3-0.6-0.5-1-0.8s-0.8-0.5-1.3-0.7s-1-0.4-1.6-0.5s-1.2-0.2-1.8-0.2
			c-1.7,0-2.9,0.3-3.6,0.9c-0.8,0.6-1.2,1.5-1.2,2.5c0,0.6,0.1,1.1,0.3,1.4c0.2,0.4,0.6,0.7,1,1c0.5,0.3,1.1,0.5,1.7,0.7
			s1.5,0.4,2.5,0.6c1.1,0.2,2.1,0.5,3,0.8s1.6,0.7,2.3,1.2c0.6,0.5,1.1,1,1.4,1.7c0.3,0.7,0.5,1.5,0.5,2.4c0,1-0.2,1.9-0.6,2.6
			c-0.4,0.7-0.9,1.4-1.6,1.9c-0.7,0.5-1.5,0.8-2.4,1.1c-0.9,0.2-2,0.3-3,0.3c-1.6,0-3.2-0.3-4.6-0.8c-1.5-0.5-2.8-1.3-4-2.2l1.3-2.3
			c0.3,0.3,0.7,0.7,1.2,1s1.1,0.6,1.7,0.9c0.6,0.3,1.3,0.5,2.1,0.7s1.5,0.3,2.3,0.3c1.5,0,2.7-0.3,3.5-0.8s1.3-1.3,1.3-2.4
			c0-0.6-0.1-1.1-0.4-1.5c-0.3-0.4-0.7-0.8-1.2-1.1s-1.2-0.6-1.9-0.8c-0.8-0.2-1.6-0.5-2.6-0.7c-1.1-0.3-2-0.5-2.8-0.8
			s-1.5-0.7-2-1.1s-1-0.9-1.2-1.5c-0.3-0.6-0.4-1.3-0.4-2.2c0-1,0.2-1.9,0.6-2.7c0.4-0.8,0.9-1.4,1.6-2c0.7-0.5,1.5-0.9,2.4-1.2
			c0.9-0.3,2-0.4,3-0.4c1.4,0,2.7,0.2,3.9,0.7c1.2,0.4,2.2,1,3.1,1.8L391.7,22.6z"/>
	</g>
</g>
<g id="clinicas_1_">
	<g>
		<path fill="#2E2E2E" d="M70.6,28.6c0-1.3,0.2-2.5,0.7-3.8s1.2-2.4,2.1-3.4s2-1.8,3.3-2.4s2.8-0.9,4.5-0.9c2,0,3.7,0.4,5.2,1.3
			s2.6,2,3.3,3.3l-3.8,2.6c-0.2-0.6-0.5-1-0.9-1.4s-0.8-0.7-1.2-0.9c-0.4-0.2-0.9-0.4-1.3-0.5c-0.5-0.1-0.9-0.1-1.3-0.1
			c-0.9,0-1.8,0.2-2.5,0.6s-1.3,0.9-1.7,1.5c-0.5,0.6-0.8,1.3-1,2c-0.2,0.8-0.3,1.5-0.3,2.3s0.1,1.6,0.4,2.4s0.6,1.5,1.1,2.1
			s1.1,1.1,1.8,1.4s1.5,0.5,2.3,0.5c0.4,0,0.9-0.1,1.4-0.2s0.9-0.3,1.3-0.5s0.8-0.5,1.2-0.9c0.4-0.4,0.6-0.8,0.9-1.4l4,2.4
			c-0.3,0.8-0.8,1.5-1.4,2.1s-1.4,1.1-2.2,1.6c-0.8,0.4-1.7,0.7-2.6,1c-0.9,0.2-1.8,0.3-2.7,0.3c-1.5,0-2.9-0.3-4.2-0.9
			c-1.3-0.6-2.4-1.5-3.3-2.5s-1.6-2.2-2.2-3.5C70.9,31.3,70.6,30,70.6,28.6z"/>
		<path fill="#2E2E2E" d="M92.4,39.4V18.2h4.9v16.9h10.3v4.3L92.4,39.4L92.4,39.4z"/>
		<path fill="#2E2E2E" d="M109.9,39.4V18.2h4.9v21.2H109.9z"/>
		<path fill="#2E2E2E" d="M123.8,27.3v12.1h-4.9V18.2h3.8l9.9,12.5V18.2h4.9v21.2h-3.9L123.8,27.3z"/>
		<path fill="#2E2E2E" d="M141.6,39.4V18.2h4.9v21.2H141.6z"/>
		<path fill="#2E2E2E" d="M149.3,28.6c0-1.3,0.2-2.5,0.7-3.8s1.2-2.4,2.1-3.4s2-1.8,3.3-2.4s2.8-0.9,4.5-0.9c2,0,3.7,0.4,5.2,1.3
			s2.6,2,3.3,3.3l-3.8,2.6c-0.2-0.6-0.5-1-0.9-1.4s-0.8-0.7-1.2-0.9c-0.4-0.2-0.9-0.4-1.3-0.5c-0.5-0.1-0.9-0.1-1.3-0.1
			c-0.9,0-1.8,0.2-2.5,0.6s-1.3,0.9-1.7,1.5c-0.5,0.6-0.8,1.3-1,2c-0.2,0.8-0.3,1.5-0.3,2.3s0.1,1.6,0.4,2.4s0.6,1.5,1.1,2.1
			s1.1,1.1,1.8,1.4s1.5,0.5,2.3,0.5c0.4,0,0.9-0.1,1.4-0.2s0.9-0.3,1.3-0.5s0.8-0.5,1.2-0.9c0.4-0.4,0.6-0.8,0.9-1.4l4,2.4
			c-0.3,0.8-0.8,1.5-1.4,2.1s-1.4,1.1-2.2,1.6c-0.8,0.4-1.7,0.7-2.6,1c-0.9,0.2-1.8,0.3-2.7,0.3c-1.5,0-2.9-0.3-4.2-0.9
			c-1.3-0.6-2.4-1.5-3.3-2.5s-1.6-2.2-2.2-3.5C149.6,31.3,149.3,30,149.3,28.6z"/>
		<path fill="#2E2E2E" d="M176.6,18.2h4.4l7.7,21.2h-5l-1.6-4.8h-6.6l-1.6,4.8h-5L176.6,18.2z M181.3,31.3l-2.5-7.5l-2.5,7.5H181.3z
			"/>
		<path fill="#2E2E2E" d="M203.2,24.4c-0.1-0.1-0.3-0.2-0.6-0.4c-0.4-0.2-0.8-0.4-1.3-0.7s-1.1-0.4-1.8-0.6s-1.3-0.3-1.9-0.3
			c-1.8,0-2.6,0.6-2.6,1.8c0,0.4,0.1,0.7,0.3,0.9s0.5,0.5,0.8,0.6c0.4,0.2,0.8,0.4,1.4,0.5s1.2,0.3,1.9,0.5c1,0.3,1.9,0.6,2.8,0.9
			c0.8,0.3,1.5,0.7,2.1,1.2s1,1.1,1.3,1.8c0.3,0.7,0.5,1.5,0.5,2.5c0,1.2-0.2,2.2-0.7,3c-0.4,0.8-1,1.5-1.8,2
			c-0.7,0.5-1.6,0.9-2.5,1.1c-1,0.2-1.9,0.3-3,0.3c-0.8,0-1.6-0.1-2.4-0.2s-1.6-0.3-2.4-0.5s-1.5-0.5-2.3-0.8s-1.4-0.7-2-1.1
			l2.2-4.3c0.1,0.1,0.3,0.3,0.8,0.6c0.4,0.3,1,0.6,1.6,0.8s1.4,0.5,2.2,0.7c0.8,0.2,1.6,0.3,2.4,0.3c1.7,0,2.6-0.5,2.6-1.6
			c0-0.4-0.1-0.7-0.4-1s-0.6-0.5-1.1-0.7s-1-0.4-1.6-0.6s-1.3-0.4-2-0.6c-1-0.3-1.8-0.6-2.5-1c-0.7-0.3-1.3-0.8-1.8-1.2
			c-0.5-0.5-0.8-1-1-1.6s-0.3-1.3-0.3-2.1c0-1.1,0.2-2.1,0.6-3s1-1.6,1.7-2.2s1.5-1,2.5-1.3c0.9-0.3,1.9-0.4,3-0.4
			c0.7,0,1.5,0.1,2.2,0.2s1.4,0.3,2.1,0.5s1.3,0.5,1.8,0.7c0.6,0.3,1.1,0.6,1.6,0.8L203.2,24.4z"/>
	</g>
</g>
<g id="iso_1_">
	<circle id="punto-negro_1_" fill="#2E2E2E" cx="28.8" cy="28.8" r="28.8"/>
	<g id="loop_1_">
		<path id="c2_1_" fill="#FFFFFF" d="M20.4,31.5c-3.7-0.2-6.5-3.3-6.3-7s3.3-6.5,7-6.3c2.3,0.1,4.2,1.3,5.3,3.1l3.8-2.4
			c-1.9-3-5.1-5-8.9-5.2c-6.1-0.3-11.4,4.4-11.7,10.6S14,35.7,20.2,36c3.6,0.2,6.9-1.4,9-3.9l-3.5-2.8
			C24.4,30.7,22.5,31.6,20.4,31.5z"/>
		<path id="c1_1_" fill="#FFFFFF" d="M37.2,26.1c3.7,0.2,6.5,3.3,6.3,7s-3.3,6.5-7,6.3c-2.3-0.1-4.2-1.3-5.3-3.1l-3.8,2.4
			c1.9,3,5.1,5,8.9,5.2c6.1,0.3,11.4-4.4,11.7-10.6c0.3-6.1-4.4-11.4-10.6-11.7c-3.6-0.2-6.9,1.4-9,3.9l3.5,2.8
			C33.2,26.9,35.1,26,37.2,26.1z"/>
	</g>
</g>
</svg>
