<?xml version="1.0" encoding="utf-8"?>
<!-- Generator: Adobe Illustrator 19.2.1, SVG Export Plug-In . SVG Version: 6.00 Build 0)  -->
<svg version="1.1" id="logo-cc" xmlns="http://www.w3.org/2000/svg" xmlns:xlink="http://www.w3.org/1999/xlink" x="0px" y="0px"
	 viewBox="0 0 246 71.1" style="enable-background:new 0 0 246 71.1;" xml:space="preserve">
<style type="text/css">
	.st0{fill:#2E2E2E;}
	.st1{fill:#FFFFFF;}
</style>
<g id="iso">
	<circle id="punto-negro" class="st0" cx="41.1" cy="35.5" r="28.8"/>
	<g id="loop">
		<path id="c2" class="st1" d="M32.7,38.2c-3.7-0.2-6.5-3.3-6.3-7s3.3-6.5,7-6.3c2.3,0.1,4.2,1.3,5.3,3.1l3.8-2.4
			c-1.9-3-5.1-5-8.9-5.2c-6.1-0.3-11.4,4.4-11.7,10.6s4.4,11.4,10.6,11.7c3.6,0.2,6.9-1.4,9-3.9L38,36
			C36.7,37.4,34.8,38.3,32.7,38.2z"/>
		<path id="c1" class="st1" d="M49.5,32.8c3.7,0.2,6.5,3.3,6.3,7s-3.3,6.5-7,6.3c-2.3-0.1-4.2-1.3-5.3-3.1l-3.8,2.4
			c1.9,3,5.1,5,8.9,5.2C54.7,50.9,60,46.2,60.3,40c0.3-6.1-4.4-11.4-10.6-11.7c-3.6-0.2-6.9,1.4-9,3.9l3.5,2.8
			C45.5,33.6,47.4,32.7,49.5,32.8z"/>
	</g>
</g>
<g>
	<g>
		<path class="st0" d="M83.4,41.2c0-0.7,0.4-1,1.1-1s1.1,0.4,1.1,1c0,0.7-0.4,1.1-1.1,1.1S83.4,41.9,83.4,41.2z M83.4,43.5
			c0-0.7,0.4-1,1.1-1s1.1,0.4,1.1,1c0,0.7-0.4,1.1-1.1,1.1S83.4,44.2,83.4,43.5z M83.4,45.8c0-0.7,0.4-1.1,1.1-1.1s1.1,0.4,1.1,1.1
			c0,0.7-0.4,1-1.1,1S83.4,46.5,83.4,45.8z M83.4,48.1c0-0.7,0.4-1.1,1.1-1.1s1.1,0.4,1.1,1.1s-0.4,1-1.1,1S83.4,48.8,83.4,48.1z
			 M83.4,50.4c0-0.7,0.4-1.1,1.1-1.1s1.1,0.4,1.1,1.1s-0.4,1.1-1.1,1.1S83.4,51.1,83.4,50.4z M83.4,52.7c0-0.7,0.4-1.1,1.1-1.1
			s1.1,0.4,1.1,1.1s-0.4,1.1-1.1,1.1S83.4,53.4,83.4,52.7z M83.4,55c0-0.7,0.4-1.1,1.1-1.1s1.1,0.4,1.1,1.1S85.2,56,84.5,56
			S83.4,55.7,83.4,55z M83.4,57.2c0-0.7,0.4-1.1,1.1-1.1s1.1,0.4,1.1,1.1s-0.4,1.1-1.1,1.1S83.4,57.9,83.4,57.2z M83.4,59.5
			c0-0.7,0.4-1.1,1.1-1.1s1.1,0.4,1.1,1.1s-0.4,1.1-1.1,1.1S83.4,60.2,83.4,59.5z M85.7,38.9c0-0.7,0.4-1.1,1.1-1.1s1.1,0.4,1.1,1.1
			S87.4,40,86.7,40S85.7,39.6,85.7,38.9z M85.7,41.2c0-0.7,0.4-1,1.1-1s1.1,0.4,1.1,1c0,0.7-0.4,1.1-1.1,1.1S85.7,41.9,85.7,41.2z
			 M85.7,43.5c0-0.7,0.4-1,1.1-1s1.1,0.4,1.1,1c0,0.7-0.4,1.1-1.1,1.1S85.7,44.2,85.7,43.5z M85.7,45.8c0-0.7,0.4-1.1,1.1-1.1
			s1.1,0.4,1.1,1.1c0,0.7-0.4,1-1.1,1S85.7,46.5,85.7,45.8z M85.7,48.1c0-0.7,0.4-1.1,1.1-1.1s1.1,0.4,1.1,1.1s-0.4,1-1.1,1
			S85.7,48.8,85.7,48.1z M85.7,50.4c0-0.7,0.4-1.1,1.1-1.1s1.1,0.4,1.1,1.1s-0.4,1.1-1.1,1.1S85.7,51.1,85.7,50.4z M85.7,52.7
			c0-0.7,0.4-1.1,1.1-1.1s1.1,0.4,1.1,1.1s-0.4,1.1-1.1,1.1S85.7,53.4,85.7,52.7z M85.7,55c0-0.7,0.4-1.1,1.1-1.1s1.1,0.4,1.1,1.1
			S87.4,56,86.7,56S85.7,55.7,85.7,55z M85.7,57.2c0-0.7,0.4-1.1,1.1-1.1s1.1,0.4,1.1,1.1s-0.4,1.1-1.1,1.1S85.7,57.9,85.7,57.2z
			 M85.7,59.5c0-0.7,0.4-1.1,1.1-1.1s1.1,0.4,1.1,1.1s-0.4,1.1-1.1,1.1S85.7,60.2,85.7,59.5z M85.7,61.8c0-0.7,0.4-1.1,1.1-1.1
			s1.1,0.4,1.1,1.1s-0.4,1.1-1.1,1.1S85.7,62.5,85.7,61.8z M88,38.9c0-0.7,0.4-1.1,1.1-1.1s1.1,0.4,1.1,1.1S89.7,40,89,40
			S88,39.6,88,38.9z M88,41.2c0-0.7,0.4-1,1.1-1s1.1,0.4,1.1,1c0,0.7-0.4,1.1-1.1,1.1S88,41.9,88,41.2z M88,59.5
			c0-0.7,0.4-1.1,1.1-1.1s1.1,0.4,1.1,1.1s-0.4,1.1-1.1,1.1S88,60.2,88,59.5z M88,61.8c0-0.7,0.4-1.1,1.1-1.1s1.1,0.4,1.1,1.1
			s-0.4,1.1-1.1,1.1S88,62.5,88,61.8z M90.3,38.9c0-0.7,0.4-1.1,1.1-1.1s1.1,0.4,1.1,1.1S92,40,91.3,40S90.3,39.6,90.3,38.9z
			 M90.3,41.2c0-0.7,0.4-1,1.1-1s1.1,0.4,1.1,1c0,0.7-0.4,1.1-1.1,1.1S90.3,41.9,90.3,41.2z M90.3,59.5c0-0.7,0.4-1.1,1.1-1.1
			s1.1,0.4,1.1,1.1s-0.4,1.1-1.1,1.1S90.3,60.2,90.3,59.5z M90.3,61.8c0-0.7,0.4-1.1,1.1-1.1s1.1,0.4,1.1,1.1s-0.4,1.1-1.1,1.1
			S90.3,62.5,90.3,61.8z M92.6,38.9c0-0.7,0.3-1.1,1-1.1s1.1,0.4,1.1,1.1S94.3,40,93.6,40S92.6,39.6,92.6,38.9z M92.6,41.2
			c0-0.7,0.3-1,1-1s1.1,0.4,1.1,1c0,0.7-0.4,1.1-1.1,1.1S92.6,41.9,92.6,41.2z M92.6,43.5c0-0.7,0.3-1,1-1s1.1,0.4,1.1,1
			c0,0.7-0.4,1.1-1.1,1.1S92.6,44.2,92.6,43.5z M92.6,45.8c0-0.7,0.3-1.1,1-1.1s1.1,0.4,1.1,1.1c0,0.7-0.4,1-1.1,1
			S92.6,46.5,92.6,45.8z M92.6,55c0-0.7,0.3-1.1,1-1.1s1.1,0.4,1.1,1.1S94.3,56,93.6,56S92.6,55.7,92.6,55z M92.6,57.2
			c0-0.7,0.3-1.1,1-1.1s1.1,0.4,1.1,1.1s-0.4,1.1-1.1,1.1S92.6,57.9,92.6,57.2z M92.6,59.5c0-0.7,0.3-1.1,1-1.1s1.1,0.4,1.1,1.1
			s-0.4,1.1-1.1,1.1S92.6,60.2,92.6,59.5z M92.6,61.8c0-0.7,0.3-1.1,1-1.1s1.1,0.4,1.1,1.1s-0.4,1.1-1.1,1.1S92.6,62.5,92.6,61.8z
			 M94.9,41.2c0-0.7,0.4-1,1-1c0.7,0,1.1,0.4,1.1,1c0,0.7-0.4,1.1-1.1,1.1C95.2,42.3,94.9,41.9,94.9,41.2z M94.9,43.5
			c0-0.7,0.4-1,1-1c0.7,0,1.1,0.4,1.1,1c0,0.7-0.4,1.1-1.1,1.1C95.2,44.5,94.9,44.2,94.9,43.5z M94.9,45.8c0-0.7,0.4-1.1,1-1.1
			c0.7,0,1.1,0.4,1.1,1.1c0,0.7-0.4,1-1.1,1C95.2,46.8,94.9,46.5,94.9,45.8z M94.9,55c0-0.7,0.4-1.1,1-1.1c0.7,0,1.1,0.4,1.1,1.1
			S96.6,56,95.9,56C95.2,56,94.9,55.7,94.9,55z M94.9,57.2c0-0.7,0.4-1.1,1-1.1c0.7,0,1.1,0.4,1.1,1.1s-0.4,1.1-1.1,1.1
			C95.2,58.3,94.9,57.9,94.9,57.2z M94.9,59.5c0-0.7,0.4-1.1,1-1.1c0.7,0,1.1,0.4,1.1,1.1s-0.4,1.1-1.1,1.1
			C95.2,60.6,94.9,60.2,94.9,59.5z"/>
		<path class="st0" d="M99.9,41.2c0-0.7,0.4-1,1.1-1s1.1,0.4,1.1,1c0,0.7-0.4,1.1-1.1,1.1S99.9,41.9,99.9,41.2z M99.9,43.5
			c0-0.7,0.4-1,1.1-1s1.1,0.4,1.1,1c0,0.7-0.4,1.1-1.1,1.1S99.9,44.2,99.9,43.5z M99.9,45.8c0-0.7,0.4-1.1,1.1-1.1s1.1,0.4,1.1,1.1
			c0,0.7-0.4,1-1.1,1S99.9,46.5,99.9,45.8z M99.9,48.1c0-0.7,0.4-1.1,1.1-1.1s1.1,0.4,1.1,1.1s-0.4,1-1.1,1S99.9,48.8,99.9,48.1z
			 M99.9,50.4c0-0.7,0.4-1.1,1.1-1.1s1.1,0.4,1.1,1.1s-0.4,1.1-1.1,1.1S99.9,51.1,99.9,50.4z M99.9,52.7c0-0.7,0.4-1.1,1.1-1.1
			s1.1,0.4,1.1,1.1s-0.4,1.1-1.1,1.1S99.9,53.4,99.9,52.7z M99.9,55c0-0.7,0.4-1.1,1.1-1.1s1.1,0.4,1.1,1.1s-0.4,1.1-1.1,1.1
			S99.9,55.7,99.9,55z M99.9,57.2c0-0.7,0.4-1.1,1.1-1.1s1.1,0.4,1.1,1.1s-0.4,1.1-1.1,1.1S99.9,57.9,99.9,57.2z M99.9,59.5
			c0-0.7,0.4-1.1,1.1-1.1s1.1,0.4,1.1,1.1s-0.4,1.1-1.1,1.1S99.9,60.2,99.9,59.5z M102.2,38.9c0-0.7,0.4-1.1,1.1-1.1
			s1.1,0.4,1.1,1.1s-0.4,1.1-1.1,1.1S102.2,39.6,102.2,38.9z M102.2,41.2c0-0.7,0.4-1,1.1-1s1.1,0.4,1.1,1c0,0.7-0.4,1.1-1.1,1.1
			S102.2,41.9,102.2,41.2z M102.2,43.5c0-0.7,0.4-1,1.1-1s1.1,0.4,1.1,1c0,0.7-0.4,1.1-1.1,1.1S102.2,44.2,102.2,43.5z M102.2,45.8
			c0-0.7,0.4-1.1,1.1-1.1s1.1,0.4,1.1,1.1c0,0.7-0.4,1-1.1,1S102.2,46.5,102.2,45.8z M102.2,48.1c0-0.7,0.4-1.1,1.1-1.1
			s1.1,0.4,1.1,1.1s-0.4,1-1.1,1S102.2,48.8,102.2,48.1z M102.2,50.4c0-0.7,0.4-1.1,1.1-1.1s1.1,0.4,1.1,1.1s-0.4,1.1-1.1,1.1
			S102.2,51.1,102.2,50.4z M102.2,52.7c0-0.7,0.4-1.1,1.1-1.1s1.1,0.4,1.1,1.1s-0.4,1.1-1.1,1.1S102.2,53.4,102.2,52.7z M102.2,55
			c0-0.7,0.4-1.1,1.1-1.1s1.1,0.4,1.1,1.1s-0.4,1.1-1.1,1.1S102.2,55.7,102.2,55z M102.2,57.2c0-0.7,0.4-1.1,1.1-1.1
			s1.1,0.4,1.1,1.1s-0.4,1.1-1.1,1.1S102.2,57.9,102.2,57.2z M102.2,59.5c0-0.7,0.4-1.1,1.1-1.1s1.1,0.4,1.1,1.1s-0.4,1.1-1.1,1.1
			S102.2,60.2,102.2,59.5z M102.2,61.8c0-0.7,0.4-1.1,1.1-1.1s1.1,0.4,1.1,1.1s-0.4,1.1-1.1,1.1S102.2,62.5,102.2,61.8z M104.5,38.9
			c0-0.7,0.4-1.1,1.1-1.1s1.1,0.4,1.1,1.1s-0.4,1.1-1.1,1.1S104.5,39.6,104.5,38.9z M104.5,41.2c0-0.7,0.4-1,1.1-1s1.1,0.4,1.1,1
			c0,0.7-0.4,1.1-1.1,1.1S104.5,41.9,104.5,41.2z M104.5,59.5c0-0.7,0.4-1.1,1.1-1.1s1.1,0.4,1.1,1.1s-0.4,1.1-1.1,1.1
			S104.5,60.2,104.5,59.5z M104.5,61.8c0-0.7,0.4-1.1,1.1-1.1s1.1,0.4,1.1,1.1s-0.4,1.1-1.1,1.1S104.5,62.5,104.5,61.8z M106.8,38.9
			c0-0.7,0.4-1.1,1.1-1.1s1.1,0.4,1.1,1.1s-0.4,1.1-1.1,1.1S106.8,39.6,106.8,38.9z M106.8,41.2c0-0.7,0.4-1,1.1-1s1.1,0.4,1.1,1
			c0,0.7-0.4,1.1-1.1,1.1S106.8,41.9,106.8,41.2z M106.8,59.5c0-0.7,0.4-1.1,1.1-1.1s1.1,0.4,1.1,1.1s-0.4,1.1-1.1,1.1
			S106.8,60.2,106.8,59.5z M106.8,61.8c0-0.7,0.4-1.1,1.1-1.1s1.1,0.4,1.1,1.1s-0.4,1.1-1.1,1.1S106.8,62.5,106.8,61.8z M109.1,38.9
			c0-0.7,0.3-1.1,1-1.1s1.1,0.4,1.1,1.1s-0.4,1.1-1.1,1.1S109.1,39.6,109.1,38.9z M109.1,41.2c0-0.7,0.3-1,1-1s1.1,0.4,1.1,1
			c0,0.7-0.4,1.1-1.1,1.1S109.1,41.9,109.1,41.2z M109.1,43.5c0-0.7,0.3-1,1-1s1.1,0.4,1.1,1c0,0.7-0.4,1.1-1.1,1.1
			S109.1,44.2,109.1,43.5z M109.1,45.8c0-0.7,0.3-1.1,1-1.1s1.1,0.4,1.1,1.1c0,0.7-0.4,1-1.1,1S109.1,46.5,109.1,45.8z M109.1,48.1
			c0-0.7,0.3-1.1,1-1.1s1.1,0.4,1.1,1.1s-0.4,1-1.1,1S109.1,48.8,109.1,48.1z M109.1,50.4c0-0.7,0.3-1.1,1-1.1s1.1,0.4,1.1,1.1
			s-0.4,1.1-1.1,1.1S109.1,51.1,109.1,50.4z M109.1,52.7c0-0.7,0.3-1.1,1-1.1s1.1,0.4,1.1,1.1s-0.4,1.1-1.1,1.1
			S109.1,53.4,109.1,52.7z M109.1,55c0-0.7,0.3-1.1,1-1.1s1.1,0.4,1.1,1.1s-0.4,1.1-1.1,1.1S109.1,55.7,109.1,55z M109.1,57.2
			c0-0.7,0.3-1.1,1-1.1s1.1,0.4,1.1,1.1s-0.4,1.1-1.1,1.1S109.1,57.9,109.1,57.2z M109.1,59.5c0-0.7,0.3-1.1,1-1.1s1.1,0.4,1.1,1.1
			s-0.4,1.1-1.1,1.1S109.1,60.2,109.1,59.5z M109.1,61.8c0-0.7,0.3-1.1,1-1.1s1.1,0.4,1.1,1.1s-0.4,1.1-1.1,1.1
			S109.1,62.5,109.1,61.8z M111.3,41.2c0-0.7,0.4-1,1-1c0.7,0,1.1,0.4,1.1,1c0,0.7-0.4,1.1-1.1,1.1
			C111.7,42.3,111.3,41.9,111.3,41.2z M111.3,43.5c0-0.7,0.4-1,1-1c0.7,0,1.1,0.4,1.1,1c0,0.7-0.4,1.1-1.1,1.1
			C111.7,44.5,111.3,44.2,111.3,43.5z M111.3,45.8c0-0.7,0.4-1.1,1-1.1c0.7,0,1.1,0.4,1.1,1.1c0,0.7-0.4,1-1.1,1
			C111.7,46.8,111.3,46.5,111.3,45.8z M111.3,48.1c0-0.7,0.4-1.1,1-1.1c0.7,0,1.1,0.4,1.1,1.1s-0.4,1-1.1,1
			C111.7,49.1,111.3,48.8,111.3,48.1z M111.3,50.4c0-0.7,0.4-1.1,1-1.1c0.7,0,1.1,0.4,1.1,1.1s-0.4,1.1-1.1,1.1
			C111.7,51.4,111.3,51.1,111.3,50.4z M111.3,52.7c0-0.7,0.4-1.1,1-1.1c0.7,0,1.1,0.4,1.1,1.1s-0.4,1.1-1.1,1.1
			C111.7,53.7,111.3,53.4,111.3,52.7z M111.3,55c0-0.7,0.4-1.1,1-1.1c0.7,0,1.1,0.4,1.1,1.1s-0.4,1.1-1.1,1.1
			C111.7,56,111.3,55.7,111.3,55z M111.3,57.2c0-0.7,0.4-1.1,1-1.1c0.7,0,1.1,0.4,1.1,1.1s-0.4,1.1-1.1,1.1
			C111.7,58.3,111.3,57.9,111.3,57.2z M111.3,59.5c0-0.7,0.4-1.1,1-1.1c0.7,0,1.1,0.4,1.1,1.1s-0.4,1.1-1.1,1.1
			C111.7,60.6,111.3,60.2,111.3,59.5z"/>
		<path class="st0" d="M116.4,38.9c0-0.7,0.4-1.1,1.1-1.1s1.1,0.4,1.1,1.1s-0.4,1.1-1.1,1.1S116.4,39.6,116.4,38.9z M116.4,41.2
			c0-0.7,0.4-1,1.1-1s1.1,0.4,1.1,1c0,0.7-0.4,1.1-1.1,1.1S116.4,41.9,116.4,41.2z M116.4,43.5c0-0.7,0.4-1,1.1-1s1.1,0.4,1.1,1
			c0,0.7-0.4,1.1-1.1,1.1S116.4,44.2,116.4,43.5z M116.4,45.8c0-0.7,0.4-1.1,1.1-1.1s1.1,0.4,1.1,1.1c0,0.7-0.4,1-1.1,1
			S116.4,46.5,116.4,45.8z M116.4,48.1c0-0.7,0.4-1.1,1.1-1.1s1.1,0.4,1.1,1.1s-0.4,1-1.1,1S116.4,48.8,116.4,48.1z M116.4,50.4
			c0-0.7,0.4-1.1,1.1-1.1s1.1,0.4,1.1,1.1s-0.4,1.1-1.1,1.1S116.4,51.1,116.4,50.4z M116.4,52.7c0-0.7,0.4-1.1,1.1-1.1
			s1.1,0.4,1.1,1.1s-0.4,1.1-1.1,1.1S116.4,53.4,116.4,52.7z M116.4,55c0-0.7,0.4-1.1,1.1-1.1s1.1,0.4,1.1,1.1s-0.4,1.1-1.1,1.1
			S116.4,55.7,116.4,55z M116.4,57.2c0-0.7,0.4-1.1,1.1-1.1s1.1,0.4,1.1,1.1s-0.4,1.1-1.1,1.1S116.4,57.9,116.4,57.2z M116.4,59.5
			c0-0.7,0.4-1.1,1.1-1.1s1.1,0.4,1.1,1.1s-0.4,1.1-1.1,1.1S116.4,60.2,116.4,59.5z M116.4,61.8c0-0.7,0.4-1.1,1.1-1.1
			s1.1,0.4,1.1,1.1s-0.4,1.1-1.1,1.1S116.4,62.5,116.4,61.8z M118.7,38.9c0-0.7,0.4-1.1,1.1-1.1s1.1,0.4,1.1,1.1s-0.4,1.1-1.1,1.1
			S118.7,39.6,118.7,38.9z M118.7,41.2c0-0.7,0.4-1,1.1-1s1.1,0.4,1.1,1c0,0.7-0.4,1.1-1.1,1.1S118.7,41.9,118.7,41.2z M118.7,43.5
			c0-0.7,0.4-1,1.1-1s1.1,0.4,1.1,1c0,0.7-0.4,1.1-1.1,1.1S118.7,44.2,118.7,43.5z M118.7,45.8c0-0.7,0.4-1.1,1.1-1.1
			s1.1,0.4,1.1,1.1c0,0.7-0.4,1-1.1,1S118.7,46.5,118.7,45.8z M118.7,48.1c0-0.7,0.4-1.1,1.1-1.1s1.1,0.4,1.1,1.1s-0.4,1-1.1,1
			S118.7,48.8,118.7,48.1z M118.7,50.4c0-0.7,0.4-1.1,1.1-1.1s1.1,0.4,1.1,1.1s-0.4,1.1-1.1,1.1S118.7,51.1,118.7,50.4z M118.7,52.7
			c0-0.7,0.4-1.1,1.1-1.1s1.1,0.4,1.1,1.1s-0.4,1.1-1.1,1.1S118.7,53.4,118.7,52.7z M118.7,55c0-0.7,0.4-1.1,1.1-1.1
			s1.1,0.4,1.1,1.1s-0.4,1.1-1.1,1.1S118.7,55.7,118.7,55z M118.7,57.2c0-0.7,0.4-1.1,1.1-1.1s1.1,0.4,1.1,1.1s-0.4,1.1-1.1,1.1
			S118.7,57.9,118.7,57.2z M118.7,59.5c0-0.7,0.4-1.1,1.1-1.1s1.1,0.4,1.1,1.1s-0.4,1.1-1.1,1.1S118.7,60.2,118.7,59.5z M118.7,61.8
			c0-0.7,0.4-1.1,1.1-1.1s1.1,0.4,1.1,1.1s-0.4,1.1-1.1,1.1S118.7,62.5,118.7,61.8z M121,59.5c0-0.7,0.4-1.1,1.1-1.1
			s1.1,0.4,1.1,1.1s-0.4,1.1-1.1,1.1S121,60.2,121,59.5z M121,61.8c0-0.7,0.4-1.1,1.1-1.1s1.1,0.4,1.1,1.1s-0.4,1.1-1.1,1.1
			S121,62.5,121,61.8z M123.2,59.5c0-0.7,0.4-1.1,1.1-1.1s1.1,0.4,1.1,1.1s-0.4,1.1-1.1,1.1S123.2,60.2,123.2,59.5z M123.2,61.8
			c0-0.7,0.4-1.1,1.1-1.1s1.1,0.4,1.1,1.1s-0.4,1.1-1.1,1.1S123.2,62.5,123.2,61.8z M125.5,59.5c0-0.7,0.3-1.1,1-1.1
			s1.1,0.4,1.1,1.1s-0.4,1.1-1.1,1.1S125.5,60.2,125.5,59.5z M125.5,61.8c0-0.7,0.3-1.1,1-1.1s1.1,0.4,1.1,1.1s-0.4,1.1-1.1,1.1
			S125.5,62.5,125.5,61.8z"/>
		<path class="st0" d="M130.6,38.9c0-0.7,0.4-1.1,1.1-1.1c0.7,0,1.1,0.4,1.1,1.1s-0.4,1.1-1.1,1.1C130.9,40,130.6,39.6,130.6,38.9z
			 M130.6,41.2c0-0.7,0.4-1,1.1-1c0.7,0,1.1,0.4,1.1,1c0,0.7-0.4,1.1-1.1,1.1C130.9,42.3,130.6,41.9,130.6,41.2z M130.6,43.5
			c0-0.7,0.4-1,1.1-1c0.7,0,1.1,0.4,1.1,1c0,0.7-0.4,1.1-1.1,1.1C130.9,44.5,130.6,44.2,130.6,43.5z M130.6,45.8
			c0-0.7,0.4-1.1,1.1-1.1c0.7,0,1.1,0.4,1.1,1.1c0,0.7-0.4,1-1.1,1C130.9,46.8,130.6,46.5,130.6,45.8z M130.6,48.1
			c0-0.7,0.4-1.1,1.1-1.1c0.7,0,1.1,0.4,1.1,1.1s-0.4,1-1.1,1C130.9,49.1,130.6,48.8,130.6,48.1z M130.6,50.4c0-0.7,0.4-1.1,1.1-1.1
			c0.7,0,1.1,0.4,1.1,1.1s-0.4,1.1-1.1,1.1C130.9,51.4,130.6,51.1,130.6,50.4z M130.6,52.7c0-0.7,0.4-1.1,1.1-1.1
			c0.7,0,1.1,0.4,1.1,1.1s-0.4,1.1-1.1,1.1C130.9,53.7,130.6,53.4,130.6,52.7z M130.6,55c0-0.7,0.4-1.1,1.1-1.1
			c0.7,0,1.1,0.4,1.1,1.1s-0.4,1.1-1.1,1.1C130.9,56,130.6,55.7,130.6,55z M130.6,57.2c0-0.7,0.4-1.1,1.1-1.1c0.7,0,1.1,0.4,1.1,1.1
			s-0.4,1.1-1.1,1.1C130.9,58.3,130.6,57.9,130.6,57.2z M130.6,59.5c0-0.7,0.4-1.1,1.1-1.1c0.7,0,1.1,0.4,1.1,1.1s-0.4,1.1-1.1,1.1
			C130.9,60.6,130.6,60.2,130.6,59.5z M130.6,61.8c0-0.7,0.4-1.1,1.1-1.1c0.7,0,1.1,0.4,1.1,1.1s-0.4,1.1-1.1,1.1
			C130.9,62.9,130.6,62.5,130.6,61.8z M132.9,38.9c0-0.7,0.4-1.1,1.1-1.1c0.7,0,1.1,0.4,1.1,1.1s-0.4,1.1-1.1,1.1
			C133.2,40,132.9,39.6,132.9,38.9z M132.9,41.2c0-0.7,0.4-1,1.1-1c0.7,0,1.1,0.4,1.1,1c0,0.7-0.4,1.1-1.1,1.1
			C133.2,42.3,132.9,41.9,132.9,41.2z M132.9,43.5c0-0.7,0.4-1,1.1-1c0.7,0,1.1,0.4,1.1,1c0,0.7-0.4,1.1-1.1,1.1
			C133.2,44.5,132.9,44.2,132.9,43.5z M132.9,45.8c0-0.7,0.4-1.1,1.1-1.1c0.7,0,1.1,0.4,1.1,1.1c0,0.7-0.4,1-1.1,1
			C133.2,46.8,132.9,46.5,132.9,45.8z M132.9,48.1c0-0.7,0.4-1.1,1.1-1.1c0.7,0,1.1,0.4,1.1,1.1s-0.4,1-1.1,1
			C133.2,49.1,132.9,48.8,132.9,48.1z M132.9,50.4c0-0.7,0.4-1.1,1.1-1.1c0.7,0,1.1,0.4,1.1,1.1s-0.4,1.1-1.1,1.1
			C133.2,51.4,132.9,51.1,132.9,50.4z M132.9,52.7c0-0.7,0.4-1.1,1.1-1.1c0.7,0,1.1,0.4,1.1,1.1s-0.4,1.1-1.1,1.1
			C133.2,53.7,132.9,53.4,132.9,52.7z M132.9,55c0-0.7,0.4-1.1,1.1-1.1c0.7,0,1.1,0.4,1.1,1.1s-0.4,1.1-1.1,1.1
			C133.2,56,132.9,55.7,132.9,55z M132.9,57.2c0-0.7,0.4-1.1,1.1-1.1c0.7,0,1.1,0.4,1.1,1.1s-0.4,1.1-1.1,1.1
			C133.2,58.3,132.9,57.9,132.9,57.2z M132.9,59.5c0-0.7,0.4-1.1,1.1-1.1c0.7,0,1.1,0.4,1.1,1.1s-0.4,1.1-1.1,1.1
			C133.2,60.6,132.9,60.2,132.9,59.5z M132.9,61.8c0-0.7,0.4-1.1,1.1-1.1c0.7,0,1.1,0.4,1.1,1.1s-0.4,1.1-1.1,1.1
			C133.2,62.9,132.9,62.5,132.9,61.8z M135.1,38.9c0-0.7,0.4-1.1,1.1-1.1c0.7,0,1.1,0.4,1.1,1.1s-0.4,1.1-1.1,1.1
			C135.5,40,135.1,39.6,135.1,38.9z M135.1,41.2c0-0.7,0.4-1,1.1-1c0.7,0,1.1,0.4,1.1,1c0,0.7-0.4,1.1-1.1,1.1
			C135.5,42.3,135.1,41.9,135.1,41.2z M135.1,50.4c0-0.7,0.4-1.1,1.1-1.1c0.7,0,1.1,0.4,1.1,1.1s-0.4,1.1-1.1,1.1
			C135.5,51.4,135.1,51.1,135.1,50.4z M135.1,52.7c0-0.7,0.4-1.1,1.1-1.1c0.7,0,1.1,0.4,1.1,1.1s-0.4,1.1-1.1,1.1
			C135.5,53.7,135.1,53.4,135.1,52.7z M135.1,59.5c0-0.7,0.4-1.1,1.1-1.1c0.7,0,1.1,0.4,1.1,1.1s-0.4,1.1-1.1,1.1
			C135.5,60.6,135.1,60.2,135.1,59.5z M135.1,61.8c0-0.7,0.4-1.1,1.1-1.1c0.7,0,1.1,0.4,1.1,1.1s-0.4,1.1-1.1,1.1
			C135.5,62.9,135.1,62.5,135.1,61.8z M137.4,38.9c0-0.7,0.4-1.1,1.1-1.1c0.7,0,1.1,0.4,1.1,1.1s-0.4,1.1-1.1,1.1
			C137.8,40,137.4,39.6,137.4,38.9z M137.4,41.2c0-0.7,0.4-1,1.1-1c0.7,0,1.1,0.4,1.1,1c0,0.7-0.4,1.1-1.1,1.1
			C137.8,42.3,137.4,41.9,137.4,41.2z M137.4,50.4c0-0.7,0.4-1.1,1.1-1.1c0.7,0,1.1,0.4,1.1,1.1s-0.4,1.1-1.1,1.1
			C137.8,51.4,137.4,51.1,137.4,50.4z M137.4,52.7c0-0.7,0.4-1.1,1.1-1.1c0.7,0,1.1,0.4,1.1,1.1s-0.4,1.1-1.1,1.1
			C137.8,53.7,137.4,53.4,137.4,52.7z M137.4,59.5c0-0.7,0.4-1.1,1.1-1.1c0.7,0,1.1,0.4,1.1,1.1s-0.4,1.1-1.1,1.1
			C137.8,60.6,137.4,60.2,137.4,59.5z M137.4,61.8c0-0.7,0.4-1.1,1.1-1.1c0.7,0,1.1,0.4,1.1,1.1s-0.4,1.1-1.1,1.1
			C137.8,62.9,137.4,62.5,137.4,61.8z M139.7,38.9c0-0.7,0.3-1.1,1-1.1c0.7,0,1.1,0.4,1.1,1.1s-0.4,1.1-1.1,1.1
			C140.1,40,139.7,39.6,139.7,38.9z M139.7,41.2c0-0.7,0.3-1,1-1c0.7,0,1.1,0.4,1.1,1c0,0.7-0.4,1.1-1.1,1.1
			C140.1,42.3,139.7,41.9,139.7,41.2z M139.7,50.4c0-0.7,0.3-1.1,1-1.1c0.7,0,1.1,0.4,1.1,1.1s-0.4,1.1-1.1,1.1
			C140.1,51.4,139.7,51.1,139.7,50.4z M139.7,52.7c0-0.7,0.3-1.1,1-1.1c0.7,0,1.1,0.4,1.1,1.1s-0.4,1.1-1.1,1.1
			C140.1,53.7,139.7,53.4,139.7,52.7z M139.7,59.5c0-0.7,0.3-1.1,1-1.1c0.7,0,1.1,0.4,1.1,1.1s-0.4,1.1-1.1,1.1
			C140.1,60.6,139.7,60.2,139.7,59.5z M139.7,61.8c0-0.7,0.3-1.1,1-1.1c0.7,0,1.1,0.4,1.1,1.1s-0.4,1.1-1.1,1.1
			C140.1,62.9,139.7,62.5,139.7,61.8z"/>
		<path class="st0" d="M144.8,41.2c0-0.7,0.4-1,1.1-1s1.1,0.4,1.1,1c0,0.7-0.4,1.1-1.1,1.1S144.8,41.9,144.8,41.2z M144.8,43.5
			c0-0.7,0.4-1,1.1-1s1.1,0.4,1.1,1c0,0.7-0.4,1.1-1.1,1.1S144.8,44.2,144.8,43.5z M144.8,45.8c0-0.7,0.4-1.1,1.1-1.1
			s1.1,0.4,1.1,1.1c0,0.7-0.4,1-1.1,1S144.8,46.5,144.8,45.8z M144.8,48.1c0-0.7,0.4-1.1,1.1-1.1s1.1,0.4,1.1,1.1s-0.4,1-1.1,1
			S144.8,48.8,144.8,48.1z M144.8,50.4c0-0.7,0.4-1.1,1.1-1.1s1.1,0.4,1.1,1.1s-0.4,1.1-1.1,1.1S144.8,51.1,144.8,50.4z M144.8,52.7
			c0-0.7,0.4-1.1,1.1-1.1s1.1,0.4,1.1,1.1s-0.4,1.1-1.1,1.1S144.8,53.4,144.8,52.7z M144.8,55c0-0.7,0.4-1.1,1.1-1.1
			s1.1,0.4,1.1,1.1s-0.4,1.1-1.1,1.1S144.8,55.7,144.8,55z M144.8,57.2c0-0.7,0.4-1.1,1.1-1.1s1.1,0.4,1.1,1.1s-0.4,1.1-1.1,1.1
			S144.8,57.9,144.8,57.2z M144.8,59.5c0-0.7,0.4-1.1,1.1-1.1s1.1,0.4,1.1,1.1s-0.4,1.1-1.1,1.1S144.8,60.2,144.8,59.5z M147.1,38.9
			c0-0.7,0.4-1.1,1.1-1.1c0.7,0,1.1,0.4,1.1,1.1s-0.4,1.1-1.1,1.1C147.4,40,147.1,39.6,147.1,38.9z M147.1,41.2c0-0.7,0.4-1,1.1-1
			c0.7,0,1.1,0.4,1.1,1c0,0.7-0.4,1.1-1.1,1.1C147.4,42.3,147.1,41.9,147.1,41.2z M147.1,43.5c0-0.7,0.4-1,1.1-1
			c0.7,0,1.1,0.4,1.1,1c0,0.7-0.4,1.1-1.1,1.1C147.4,44.5,147.1,44.2,147.1,43.5z M147.1,45.8c0-0.7,0.4-1.1,1.1-1.1
			c0.7,0,1.1,0.4,1.1,1.1c0,0.7-0.4,1-1.1,1C147.4,46.8,147.1,46.5,147.1,45.8z M147.1,48.1c0-0.7,0.4-1.1,1.1-1.1
			c0.7,0,1.1,0.4,1.1,1.1s-0.4,1-1.1,1C147.4,49.1,147.1,48.8,147.1,48.1z M147.1,50.4c0-0.7,0.4-1.1,1.1-1.1c0.7,0,1.1,0.4,1.1,1.1
			s-0.4,1.1-1.1,1.1C147.4,51.4,147.1,51.1,147.1,50.4z M147.1,52.7c0-0.7,0.4-1.1,1.1-1.1c0.7,0,1.1,0.4,1.1,1.1s-0.4,1.1-1.1,1.1
			C147.4,53.7,147.1,53.4,147.1,52.7z M147.1,55c0-0.7,0.4-1.1,1.1-1.1c0.7,0,1.1,0.4,1.1,1.1s-0.4,1.1-1.1,1.1
			C147.4,56,147.1,55.7,147.1,55z M147.1,57.2c0-0.7,0.4-1.1,1.1-1.1c0.7,0,1.1,0.4,1.1,1.1s-0.4,1.1-1.1,1.1
			C147.4,58.3,147.1,57.9,147.1,57.2z M147.1,59.5c0-0.7,0.4-1.1,1.1-1.1c0.7,0,1.1,0.4,1.1,1.1s-0.4,1.1-1.1,1.1
			C147.4,60.6,147.1,60.2,147.1,59.5z M147.1,61.8c0-0.7,0.4-1.1,1.1-1.1c0.7,0,1.1,0.4,1.1,1.1s-0.4,1.1-1.1,1.1
			C147.4,62.9,147.1,62.5,147.1,61.8z M149.4,38.9c0-0.7,0.4-1.1,1.1-1.1c0.7,0,1.1,0.4,1.1,1.1s-0.4,1.1-1.1,1.1
			C149.7,40,149.4,39.6,149.4,38.9z M149.4,41.2c0-0.7,0.4-1,1.1-1c0.7,0,1.1,0.4,1.1,1c0,0.7-0.4,1.1-1.1,1.1
			C149.7,42.3,149.4,41.9,149.4,41.2z M149.4,59.5c0-0.7,0.4-1.1,1.1-1.1c0.7,0,1.1,0.4,1.1,1.1s-0.4,1.1-1.1,1.1
			C149.7,60.6,149.4,60.2,149.4,59.5z M149.4,61.8c0-0.7,0.4-1.1,1.1-1.1c0.7,0,1.1,0.4,1.1,1.1s-0.4,1.1-1.1,1.1
			C149.7,62.9,149.4,62.5,149.4,61.8z M151.7,38.9c0-0.7,0.4-1.1,1.1-1.1c0.7,0,1.1,0.4,1.1,1.1s-0.4,1.1-1.1,1.1
			C152,40,151.7,39.6,151.7,38.9z M151.7,41.2c0-0.7,0.4-1,1.1-1c0.7,0,1.1,0.4,1.1,1c0,0.7-0.4,1.1-1.1,1.1
			C152,42.3,151.7,41.9,151.7,41.2z M151.7,59.5c0-0.7,0.4-1.1,1.1-1.1c0.7,0,1.1,0.4,1.1,1.1s-0.4,1.1-1.1,1.1
			C152,60.6,151.7,60.2,151.7,59.5z M151.7,61.8c0-0.7,0.4-1.1,1.1-1.1c0.7,0,1.1,0.4,1.1,1.1s-0.4,1.1-1.1,1.1
			C152,62.9,151.7,62.5,151.7,61.8z M153.9,38.9c0-0.7,0.3-1.1,1-1.1c0.7,0,1.1,0.4,1.1,1.1S155.7,40,155,40
			C154.3,40,153.9,39.6,153.9,38.9z M153.9,41.2c0-0.7,0.3-1,1-1c0.7,0,1.1,0.4,1.1,1c0,0.7-0.4,1.1-1.1,1.1
			C154.3,42.3,153.9,41.9,153.9,41.2z M153.9,43.5c0-0.7,0.3-1,1-1c0.7,0,1.1,0.4,1.1,1c0,0.7-0.4,1.1-1.1,1.1
			C154.3,44.5,153.9,44.2,153.9,43.5z M153.9,45.8c0-0.7,0.3-1.1,1-1.1c0.7,0,1.1,0.4,1.1,1.1c0,0.7-0.4,1-1.1,1
			C154.3,46.8,153.9,46.5,153.9,45.8z M153.9,55c0-0.7,0.3-1.1,1-1.1c0.7,0,1.1,0.4,1.1,1.1S155.7,56,155,56
			C154.3,56,153.9,55.7,153.9,55z M153.9,57.2c0-0.7,0.3-1.1,1-1.1c0.7,0,1.1,0.4,1.1,1.1s-0.4,1.1-1.1,1.1
			C154.3,58.3,153.9,57.9,153.9,57.2z M153.9,59.5c0-0.7,0.3-1.1,1-1.1c0.7,0,1.1,0.4,1.1,1.1s-0.4,1.1-1.1,1.1
			C154.3,60.6,153.9,60.2,153.9,59.5z M153.9,61.8c0-0.7,0.3-1.1,1-1.1c0.7,0,1.1,0.4,1.1,1.1s-0.4,1.1-1.1,1.1
			C154.3,62.9,153.9,62.5,153.9,61.8z M156.2,41.2c0-0.7,0.4-1,1-1c0.7,0,1.1,0.4,1.1,1c0,0.7-0.4,1.1-1.1,1.1
			C156.6,42.3,156.2,41.9,156.2,41.2z M156.2,43.5c0-0.7,0.4-1,1-1c0.7,0,1.1,0.4,1.1,1c0,0.7-0.4,1.1-1.1,1.1
			C156.6,44.5,156.2,44.2,156.2,43.5z M156.2,45.8c0-0.7,0.4-1.1,1-1.1c0.7,0,1.1,0.4,1.1,1.1c0,0.7-0.4,1-1.1,1
			C156.6,46.8,156.2,46.5,156.2,45.8z M156.2,55c0-0.7,0.4-1.1,1-1.1c0.7,0,1.1,0.4,1.1,1.1S158,56,157.3,56
			C156.6,56,156.2,55.7,156.2,55z M156.2,57.2c0-0.7,0.4-1.1,1-1.1c0.7,0,1.1,0.4,1.1,1.1s-0.4,1.1-1.1,1.1
			C156.6,58.3,156.2,57.9,156.2,57.2z M156.2,59.5c0-0.7,0.4-1.1,1-1.1c0.7,0,1.1,0.4,1.1,1.1s-0.4,1.1-1.1,1.1
			C156.6,60.6,156.2,60.2,156.2,59.5z"/>
		<path class="st0" d="M161.3,38.9c0-0.7,0.4-1.1,1.1-1.1c0.7,0,1.1,0.4,1.1,1.1S163,40,162.3,40C161.6,40,161.3,39.6,161.3,38.9z
			 M161.3,41.2c0-0.7,0.4-1,1.1-1c0.7,0,1.1,0.4,1.1,1c0,0.7-0.4,1.1-1.1,1.1C161.6,42.3,161.3,41.9,161.3,41.2z M163.6,38.9
			c0-0.7,0.4-1.1,1.1-1.1c0.7,0,1.1,0.4,1.1,1.1s-0.4,1.1-1.1,1.1C163.9,40,163.6,39.6,163.6,38.9z M163.6,41.2c0-0.7,0.4-1,1.1-1
			c0.7,0,1.1,0.4,1.1,1c0,0.7-0.4,1.1-1.1,1.1C163.9,42.3,163.6,41.9,163.6,41.2z M165.8,38.9c0-0.7,0.4-1.1,1.1-1.1
			c0.7,0,1.1,0.4,1.1,1.1s-0.4,1.1-1.1,1.1C166.2,40,165.8,39.6,165.8,38.9z M165.8,41.2c0-0.7,0.4-1,1.1-1c0.7,0,1.1,0.4,1.1,1
			c0,0.7-0.4,1.1-1.1,1.1C166.2,42.3,165.8,41.9,165.8,41.2z M165.8,43.5c0-0.7,0.4-1,1.1-1c0.7,0,1.1,0.4,1.1,1
			c0,0.7-0.4,1.1-1.1,1.1C166.2,44.5,165.8,44.2,165.8,43.5z M165.8,45.8c0-0.7,0.4-1.1,1.1-1.1c0.7,0,1.1,0.4,1.1,1.1
			c0,0.7-0.4,1-1.1,1C166.2,46.8,165.8,46.5,165.8,45.8z M165.8,48.1c0-0.7,0.4-1.1,1.1-1.1c0.7,0,1.1,0.4,1.1,1.1s-0.4,1-1.1,1
			C166.2,49.1,165.8,48.8,165.8,48.1z M165.8,50.4c0-0.7,0.4-1.1,1.1-1.1c0.7,0,1.1,0.4,1.1,1.1s-0.4,1.1-1.1,1.1
			C166.2,51.4,165.8,51.1,165.8,50.4z M165.8,52.7c0-0.7,0.4-1.1,1.1-1.1c0.7,0,1.1,0.4,1.1,1.1s-0.4,1.1-1.1,1.1
			C166.2,53.7,165.8,53.4,165.8,52.7z M165.8,55c0-0.7,0.4-1.1,1.1-1.1c0.7,0,1.1,0.4,1.1,1.1s-0.4,1.1-1.1,1.1
			C166.2,56,165.8,55.7,165.8,55z M165.8,57.2c0-0.7,0.4-1.1,1.1-1.1c0.7,0,1.1,0.4,1.1,1.1s-0.4,1.1-1.1,1.1
			C166.2,58.3,165.8,57.9,165.8,57.2z M165.8,59.5c0-0.7,0.4-1.1,1.1-1.1c0.7,0,1.1,0.4,1.1,1.1s-0.4,1.1-1.1,1.1
			C166.2,60.6,165.8,60.2,165.8,59.5z M165.8,61.8c0-0.7,0.4-1.1,1.1-1.1c0.7,0,1.1,0.4,1.1,1.1s-0.4,1.1-1.1,1.1
			C166.2,62.9,165.8,62.5,165.8,61.8z M168.1,38.9c0-0.7,0.4-1.1,1.1-1.1c0.7,0,1.1,0.4,1.1,1.1s-0.4,1.1-1.1,1.1
			C168.5,40,168.1,39.6,168.1,38.9z M168.1,41.2c0-0.7,0.4-1,1.1-1c0.7,0,1.1,0.4,1.1,1c0,0.7-0.4,1.1-1.1,1.1
			C168.5,42.3,168.1,41.9,168.1,41.2z M168.1,43.5c0-0.7,0.4-1,1.1-1c0.7,0,1.1,0.4,1.1,1c0,0.7-0.4,1.1-1.1,1.1
			C168.5,44.5,168.1,44.2,168.1,43.5z M168.1,45.8c0-0.7,0.4-1.1,1.1-1.1c0.7,0,1.1,0.4,1.1,1.1c0,0.7-0.4,1-1.1,1
			C168.5,46.8,168.1,46.5,168.1,45.8z M168.1,48.1c0-0.7,0.4-1.1,1.1-1.1c0.7,0,1.1,0.4,1.1,1.1s-0.4,1-1.1,1
			C168.5,49.1,168.1,48.8,168.1,48.1z M168.1,50.4c0-0.7,0.4-1.1,1.1-1.1c0.7,0,1.1,0.4,1.1,1.1s-0.4,1.1-1.1,1.1
			C168.5,51.4,168.1,51.1,168.1,50.4z M168.1,52.7c0-0.7,0.4-1.1,1.1-1.1c0.7,0,1.1,0.4,1.1,1.1s-0.4,1.1-1.1,1.1
			C168.5,53.7,168.1,53.4,168.1,52.7z M168.1,55c0-0.7,0.4-1.1,1.1-1.1c0.7,0,1.1,0.4,1.1,1.1s-0.4,1.1-1.1,1.1
			C168.5,56,168.1,55.7,168.1,55z M168.1,57.2c0-0.7,0.4-1.1,1.1-1.1c0.7,0,1.1,0.4,1.1,1.1s-0.4,1.1-1.1,1.1
			C168.5,58.3,168.1,57.9,168.1,57.2z M168.1,59.5c0-0.7,0.4-1.1,1.1-1.1c0.7,0,1.1,0.4,1.1,1.1s-0.4,1.1-1.1,1.1
			C168.5,60.6,168.1,60.2,168.1,59.5z M168.1,61.8c0-0.7,0.4-1.1,1.1-1.1c0.7,0,1.1,0.4,1.1,1.1s-0.4,1.1-1.1,1.1
			C168.5,62.9,168.1,62.5,168.1,61.8z M170.4,38.9c0-0.7,0.3-1.1,1-1.1c0.7,0,1.1,0.4,1.1,1.1s-0.4,1.1-1.1,1.1
			C170.8,40,170.4,39.6,170.4,38.9z M170.4,41.2c0-0.7,0.3-1,1-1c0.7,0,1.1,0.4,1.1,1c0,0.7-0.4,1.1-1.1,1.1
			C170.8,42.3,170.4,41.9,170.4,41.2z M172.7,38.9c0-0.7,0.4-1.1,1-1.1c0.7,0,1.1,0.4,1.1,1.1s-0.4,1.1-1.1,1.1
			C173.1,40,172.7,39.6,172.7,38.9z M172.7,41.2c0-0.7,0.4-1,1-1c0.7,0,1.1,0.4,1.1,1c0,0.7-0.4,1.1-1.1,1.1
			C173.1,42.3,172.7,41.9,172.7,41.2z"/>
		<path class="st0" d="M177.7,38.9c0-0.7,0.4-1.1,1.1-1.1c0.7,0,1.1,0.4,1.1,1.1s-0.4,1.1-1.1,1.1C178.1,40,177.7,39.6,177.7,38.9z
			 M177.7,41.2c0-0.7,0.4-1,1.1-1c0.7,0,1.1,0.4,1.1,1c0,0.7-0.4,1.1-1.1,1.1C178.1,42.3,177.7,41.9,177.7,41.2z M177.7,43.5
			c0-0.7,0.4-1,1.1-1c0.7,0,1.1,0.4,1.1,1c0,0.7-0.4,1.1-1.1,1.1C178.1,44.5,177.7,44.2,177.7,43.5z M177.7,45.8
			c0-0.7,0.4-1.1,1.1-1.1c0.7,0,1.1,0.4,1.1,1.1c0,0.7-0.4,1-1.1,1C178.1,46.8,177.7,46.5,177.7,45.8z M177.7,48.1
			c0-0.7,0.4-1.1,1.1-1.1c0.7,0,1.1,0.4,1.1,1.1s-0.4,1-1.1,1C178.1,49.1,177.7,48.8,177.7,48.1z M177.7,50.4c0-0.7,0.4-1.1,1.1-1.1
			c0.7,0,1.1,0.4,1.1,1.1s-0.4,1.1-1.1,1.1C178.1,51.4,177.7,51.1,177.7,50.4z M177.7,52.7c0-0.7,0.4-1.1,1.1-1.1
			c0.7,0,1.1,0.4,1.1,1.1s-0.4,1.1-1.1,1.1C178.1,53.7,177.7,53.4,177.7,52.7z M177.7,55c0-0.7,0.4-1.1,1.1-1.1
			c0.7,0,1.1,0.4,1.1,1.1s-0.4,1.1-1.1,1.1C178.1,56,177.7,55.7,177.7,55z M177.7,57.2c0-0.7,0.4-1.1,1.1-1.1c0.7,0,1.1,0.4,1.1,1.1
			s-0.4,1.1-1.1,1.1C178.1,58.3,177.7,57.9,177.7,57.2z M177.7,59.5c0-0.7,0.4-1.1,1.1-1.1c0.7,0,1.1,0.4,1.1,1.1s-0.4,1.1-1.1,1.1
			C178.1,60.6,177.7,60.2,177.7,59.5z M177.7,61.8c0-0.7,0.4-1.1,1.1-1.1c0.7,0,1.1,0.4,1.1,1.1s-0.4,1.1-1.1,1.1
			C178.1,62.9,177.7,62.5,177.7,61.8z M180,38.9c0-0.7,0.4-1.1,1.1-1.1c0.7,0,1.1,0.4,1.1,1.1s-0.4,1.1-1.1,1.1
			C180.4,40,180,39.6,180,38.9z M180,41.2c0-0.7,0.4-1,1.1-1c0.7,0,1.1,0.4,1.1,1c0,0.7-0.4,1.1-1.1,1.1
			C180.4,42.3,180,41.9,180,41.2z M180,43.5c0-0.7,0.4-1,1.1-1c0.7,0,1.1,0.4,1.1,1c0,0.7-0.4,1.1-1.1,1.1
			C180.4,44.5,180,44.2,180,43.5z M180,45.8c0-0.7,0.4-1.1,1.1-1.1c0.7,0,1.1,0.4,1.1,1.1c0,0.7-0.4,1-1.1,1
			C180.4,46.8,180,46.5,180,45.8z M180,48.1c0-0.7,0.4-1.1,1.1-1.1c0.7,0,1.1,0.4,1.1,1.1s-0.4,1-1.1,1
			C180.4,49.1,180,48.8,180,48.1z M180,50.4c0-0.7,0.4-1.1,1.1-1.1c0.7,0,1.1,0.4,1.1,1.1s-0.4,1.1-1.1,1.1
			C180.4,51.4,180,51.1,180,50.4z M180,52.7c0-0.7,0.4-1.1,1.1-1.1c0.7,0,1.1,0.4,1.1,1.1s-0.4,1.1-1.1,1.1
			C180.4,53.7,180,53.4,180,52.7z M180,55c0-0.7,0.4-1.1,1.1-1.1c0.7,0,1.1,0.4,1.1,1.1s-0.4,1.1-1.1,1.1C180.4,56,180,55.7,180,55z
			 M180,57.2c0-0.7,0.4-1.1,1.1-1.1c0.7,0,1.1,0.4,1.1,1.1s-0.4,1.1-1.1,1.1C180.4,58.3,180,57.9,180,57.2z M180,59.5
			c0-0.7,0.4-1.1,1.1-1.1c0.7,0,1.1,0.4,1.1,1.1s-0.4,1.1-1.1,1.1C180.4,60.6,180,60.2,180,59.5z M180,61.8c0-0.7,0.4-1.1,1.1-1.1
			c0.7,0,1.1,0.4,1.1,1.1s-0.4,1.1-1.1,1.1C180.4,62.9,180,62.5,180,61.8z"/>
		<path class="st0" d="M185.1,38.9c0-0.7,0.4-1.1,1.1-1.1c0.7,0,1.1,0.4,1.1,1.1s-0.4,1.1-1.1,1.1C185.4,40,185.1,39.6,185.1,38.9z
			 M185.1,41.2c0-0.7,0.4-1,1.1-1c0.7,0,1.1,0.4,1.1,1c0,0.7-0.4,1.1-1.1,1.1C185.4,42.3,185.1,41.9,185.1,41.2z M185.1,43.5
			c0-0.7,0.4-1,1.1-1c0.7,0,1.1,0.4,1.1,1c0,0.7-0.4,1.1-1.1,1.1C185.4,44.5,185.1,44.2,185.1,43.5z M185.1,45.8
			c0-0.7,0.4-1.1,1.1-1.1c0.7,0,1.1,0.4,1.1,1.1c0,0.7-0.4,1-1.1,1C185.4,46.8,185.1,46.5,185.1,45.8z M185.1,48.1
			c0-0.7,0.4-1.1,1.1-1.1c0.7,0,1.1,0.4,1.1,1.1s-0.4,1-1.1,1C185.4,49.1,185.1,48.8,185.1,48.1z M185.1,50.4c0-0.7,0.4-1.1,1.1-1.1
			c0.7,0,1.1,0.4,1.1,1.1s-0.4,1.1-1.1,1.1C185.4,51.4,185.1,51.1,185.1,50.4z M185.1,52.7c0-0.7,0.4-1.1,1.1-1.1
			c0.7,0,1.1,0.4,1.1,1.1s-0.4,1.1-1.1,1.1C185.4,53.7,185.1,53.4,185.1,52.7z M185.1,55c0-0.7,0.4-1.1,1.1-1.1
			c0.7,0,1.1,0.4,1.1,1.1s-0.4,1.1-1.1,1.1C185.4,56,185.1,55.7,185.1,55z M185.1,57.2c0-0.7,0.4-1.1,1.1-1.1c0.7,0,1.1,0.4,1.1,1.1
			s-0.4,1.1-1.1,1.1C185.4,58.3,185.1,57.9,185.1,57.2z M187.4,38.9c0-0.7,0.4-1.1,1.1-1.1c0.7,0,1.1,0.4,1.1,1.1s-0.4,1.1-1.1,1.1
			C187.7,40,187.4,39.6,187.4,38.9z M187.4,41.2c0-0.7,0.4-1,1.1-1c0.7,0,1.1,0.4,1.1,1c0,0.7-0.4,1.1-1.1,1.1
			C187.7,42.3,187.4,41.9,187.4,41.2z M187.4,43.5c0-0.7,0.4-1,1.1-1c0.7,0,1.1,0.4,1.1,1c0,0.7-0.4,1.1-1.1,1.1
			C187.7,44.5,187.4,44.2,187.4,43.5z M187.4,45.8c0-0.7,0.4-1.1,1.1-1.1c0.7,0,1.1,0.4,1.1,1.1c0,0.7-0.4,1-1.1,1
			C187.7,46.8,187.4,46.5,187.4,45.8z M187.4,48.1c0-0.7,0.4-1.1,1.1-1.1c0.7,0,1.1,0.4,1.1,1.1s-0.4,1-1.1,1
			C187.7,49.1,187.4,48.8,187.4,48.1z M187.4,50.4c0-0.7,0.4-1.1,1.1-1.1c0.7,0,1.1,0.4,1.1,1.1s-0.4,1.1-1.1,1.1
			C187.7,51.4,187.4,51.1,187.4,50.4z M187.4,52.7c0-0.7,0.4-1.1,1.1-1.1c0.7,0,1.1,0.4,1.1,1.1s-0.4,1.1-1.1,1.1
			C187.7,53.7,187.4,53.4,187.4,52.7z M187.4,55c0-0.7,0.4-1.1,1.1-1.1c0.7,0,1.1,0.4,1.1,1.1s-0.4,1.1-1.1,1.1
			C187.7,56,187.4,55.7,187.4,55z M187.4,57.2c0-0.7,0.4-1.1,1.1-1.1c0.7,0,1.1,0.4,1.1,1.1s-0.4,1.1-1.1,1.1
			C187.7,58.3,187.4,57.9,187.4,57.2z M187.4,59.5c0-0.7,0.4-1.1,1.1-1.1c0.7,0,1.1,0.4,1.1,1.1s-0.4,1.1-1.1,1.1
			C187.7,60.6,187.4,60.2,187.4,59.5z M187.4,61.8c0-0.7,0.4-1.1,1.1-1.1c0.7,0,1.1,0.4,1.1,1.1s-0.4,1.1-1.1,1.1
			C187.7,62.9,187.4,62.5,187.4,61.8z M189.7,59.5c0-0.7,0.4-1.1,1.1-1.1c0.7,0,1.1,0.4,1.1,1.1s-0.4,1.1-1.1,1.1
			C190,60.6,189.7,60.2,189.7,59.5z M189.7,61.8c0-0.7,0.4-1.1,1.1-1.1c0.7,0,1.1,0.4,1.1,1.1s-0.4,1.1-1.1,1.1
			C190,62.9,189.7,62.5,189.7,61.8z M192,59.5c0-0.7,0.4-1.1,1.1-1.1c0.7,0,1.1,0.4,1.1,1.1s-0.4,1.1-1.1,1.1
			C192.3,60.6,192,60.2,192,59.5z M192,61.8c0-0.7,0.4-1.1,1.1-1.1c0.7,0,1.1,0.4,1.1,1.1s-0.4,1.1-1.1,1.1
			C192.3,62.9,192,62.5,192,61.8z M194.3,38.9c0-0.7,0.3-1.1,1-1.1c0.7,0,1.1,0.4,1.1,1.1S196,40,195.3,40
			C194.6,40,194.3,39.6,194.3,38.9z M194.3,41.2c0-0.7,0.3-1,1-1c0.7,0,1.1,0.4,1.1,1c0,0.7-0.4,1.1-1.1,1.1
			C194.6,42.3,194.3,41.9,194.3,41.2z M194.3,43.5c0-0.7,0.3-1,1-1c0.7,0,1.1,0.4,1.1,1c0,0.7-0.4,1.1-1.1,1.1
			C194.6,44.5,194.3,44.2,194.3,43.5z M194.3,45.8c0-0.7,0.3-1.1,1-1.1c0.7,0,1.1,0.4,1.1,1.1c0,0.7-0.4,1-1.1,1
			C194.6,46.8,194.3,46.5,194.3,45.8z M194.3,48.1c0-0.7,0.3-1.1,1-1.1c0.7,0,1.1,0.4,1.1,1.1s-0.4,1-1.1,1
			C194.6,49.1,194.3,48.8,194.3,48.1z M194.3,50.4c0-0.7,0.3-1.1,1-1.1c0.7,0,1.1,0.4,1.1,1.1s-0.4,1.1-1.1,1.1
			C194.6,51.4,194.3,51.1,194.3,50.4z M194.3,52.7c0-0.7,0.3-1.1,1-1.1c0.7,0,1.1,0.4,1.1,1.1s-0.4,1.1-1.1,1.1
			C194.6,53.7,194.3,53.4,194.3,52.7z M194.3,55c0-0.7,0.3-1.1,1-1.1c0.7,0,1.1,0.4,1.1,1.1S196,56,195.3,56
			C194.6,56,194.3,55.7,194.3,55z M194.3,57.2c0-0.7,0.3-1.1,1-1.1c0.7,0,1.1,0.4,1.1,1.1s-0.4,1.1-1.1,1.1
			C194.6,58.3,194.3,57.9,194.3,57.2z M194.3,59.5c0-0.7,0.3-1.1,1-1.1c0.7,0,1.1,0.4,1.1,1.1s-0.4,1.1-1.1,1.1
			C194.6,60.6,194.3,60.2,194.3,59.5z M194.3,61.8c0-0.7,0.3-1.1,1-1.1c0.7,0,1.1,0.4,1.1,1.1s-0.4,1.1-1.1,1.1
			C194.6,62.9,194.3,62.5,194.3,61.8z M196.6,38.9c0-0.7,0.4-1.1,1-1.1c0.7,0,1.1,0.4,1.1,1.1s-0.4,1.1-1.1,1.1
			C196.9,40,196.6,39.6,196.6,38.9z M196.6,41.2c0-0.7,0.4-1,1-1c0.7,0,1.1,0.4,1.1,1c0,0.7-0.4,1.1-1.1,1.1
			C196.9,42.3,196.6,41.9,196.6,41.2z M196.6,43.5c0-0.7,0.4-1,1-1c0.7,0,1.1,0.4,1.1,1c0,0.7-0.4,1.1-1.1,1.1
			C196.9,44.5,196.6,44.2,196.6,43.5z M196.6,45.8c0-0.7,0.4-1.1,1-1.1c0.7,0,1.1,0.4,1.1,1.1c0,0.7-0.4,1-1.1,1
			C196.9,46.8,196.6,46.5,196.6,45.8z M196.6,48.1c0-0.7,0.4-1.1,1-1.1c0.7,0,1.1,0.4,1.1,1.1s-0.4,1-1.1,1
			C196.9,49.1,196.6,48.8,196.6,48.1z M196.6,50.4c0-0.7,0.4-1.1,1-1.1c0.7,0,1.1,0.4,1.1,1.1s-0.4,1.1-1.1,1.1
			C196.9,51.4,196.6,51.1,196.6,50.4z M196.6,52.7c0-0.7,0.4-1.1,1-1.1c0.7,0,1.1,0.4,1.1,1.1s-0.4,1.1-1.1,1.1
			C196.9,53.7,196.6,53.4,196.6,52.7z M196.6,55c0-0.7,0.4-1.1,1-1.1c0.7,0,1.1,0.4,1.1,1.1s-0.4,1.1-1.1,1.1
			C196.9,56,196.6,55.7,196.6,55z M196.6,57.2c0-0.7,0.4-1.1,1-1.1c0.7,0,1.1,0.4,1.1,1.1s-0.4,1.1-1.1,1.1
			C196.9,58.3,196.6,57.9,196.6,57.2z"/>
		<path class="st0" d="M201.6,41.2c0-0.7,0.4-1,1.1-1c0.7,0,1.1,0.4,1.1,1c0,0.7-0.4,1.1-1.1,1.1C201.9,42.3,201.6,41.9,201.6,41.2z
			 M201.6,43.5c0-0.7,0.4-1,1.1-1c0.7,0,1.1,0.4,1.1,1c0,0.7-0.4,1.1-1.1,1.1C201.9,44.5,201.6,44.2,201.6,43.5z M201.6,45.8
			c0-0.7,0.4-1.1,1.1-1.1c0.7,0,1.1,0.4,1.1,1.1c0,0.7-0.4,1-1.1,1C201.9,46.8,201.6,46.5,201.6,45.8z M201.6,48.1
			c0-0.7,0.4-1.1,1.1-1.1c0.7,0,1.1,0.4,1.1,1.1s-0.4,1-1.1,1C201.9,49.1,201.6,48.8,201.6,48.1z M201.6,50.4c0-0.7,0.4-1.1,1.1-1.1
			c0.7,0,1.1,0.4,1.1,1.1s-0.4,1.1-1.1,1.1C201.9,51.4,201.6,51.1,201.6,50.4z M201.6,52.7c0-0.7,0.4-1.1,1.1-1.1
			c0.7,0,1.1,0.4,1.1,1.1s-0.4,1.1-1.1,1.1C201.9,53.7,201.6,53.4,201.6,52.7z M201.6,55c0-0.7,0.4-1.1,1.1-1.1
			c0.7,0,1.1,0.4,1.1,1.1s-0.4,1.1-1.1,1.1C201.9,56,201.6,55.7,201.6,55z M201.6,57.2c0-0.7,0.4-1.1,1.1-1.1c0.7,0,1.1,0.4,1.1,1.1
			s-0.4,1.1-1.1,1.1C201.9,58.3,201.6,57.9,201.6,57.2z M201.6,59.5c0-0.7,0.4-1.1,1.1-1.1c0.7,0,1.1,0.4,1.1,1.1s-0.4,1.1-1.1,1.1
			C201.9,60.6,201.6,60.2,201.6,59.5z M201.6,61.8c0-0.7,0.4-1.1,1.1-1.1c0.7,0,1.1,0.4,1.1,1.1s-0.4,1.1-1.1,1.1
			C201.9,62.9,201.6,62.5,201.6,61.8z M203.9,38.9c0-0.7,0.4-1.1,1.1-1.1c0.7,0,1.1,0.4,1.1,1.1s-0.4,1.1-1.1,1.1
			C204.2,40,203.9,39.6,203.9,38.9z M203.9,41.2c0-0.7,0.4-1,1.1-1c0.7,0,1.1,0.4,1.1,1c0,0.7-0.4,1.1-1.1,1.1
			C204.2,42.3,203.9,41.9,203.9,41.2z M203.9,43.5c0-0.7,0.4-1,1.1-1c0.7,0,1.1,0.4,1.1,1c0,0.7-0.4,1.1-1.1,1.1
			C204.2,44.5,203.9,44.2,203.9,43.5z M203.9,45.8c0-0.7,0.4-1.1,1.1-1.1c0.7,0,1.1,0.4,1.1,1.1c0,0.7-0.4,1-1.1,1
			C204.2,46.8,203.9,46.5,203.9,45.8z M203.9,48.1c0-0.7,0.4-1.1,1.1-1.1c0.7,0,1.1,0.4,1.1,1.1s-0.4,1-1.1,1
			C204.2,49.1,203.9,48.8,203.9,48.1z M203.9,50.4c0-0.7,0.4-1.1,1.1-1.1c0.7,0,1.1,0.4,1.1,1.1s-0.4,1.1-1.1,1.1
			C204.2,51.4,203.9,51.1,203.9,50.4z M203.9,52.7c0-0.7,0.4-1.1,1.1-1.1c0.7,0,1.1,0.4,1.1,1.1s-0.4,1.1-1.1,1.1
			C204.2,53.7,203.9,53.4,203.9,52.7z M203.9,55c0-0.7,0.4-1.1,1.1-1.1c0.7,0,1.1,0.4,1.1,1.1s-0.4,1.1-1.1,1.1
			C204.2,56,203.9,55.7,203.9,55z M203.9,57.2c0-0.7,0.4-1.1,1.1-1.1c0.7,0,1.1,0.4,1.1,1.1s-0.4,1.1-1.1,1.1
			C204.2,58.3,203.9,57.9,203.9,57.2z M203.9,59.5c0-0.7,0.4-1.1,1.1-1.1c0.7,0,1.1,0.4,1.1,1.1s-0.4,1.1-1.1,1.1
			C204.2,60.6,203.9,60.2,203.9,59.5z M203.9,61.8c0-0.7,0.4-1.1,1.1-1.1c0.7,0,1.1,0.4,1.1,1.1s-0.4,1.1-1.1,1.1
			C204.2,62.9,203.9,62.5,203.9,61.8z M206.2,38.9c0-0.7,0.4-1.1,1.1-1.1c0.7,0,1.1,0.4,1.1,1.1s-0.4,1.1-1.1,1.1
			C206.5,40,206.2,39.6,206.2,38.9z M206.2,41.2c0-0.7,0.4-1,1.1-1c0.7,0,1.1,0.4,1.1,1c0,0.7-0.4,1.1-1.1,1.1
			C206.5,42.3,206.2,41.9,206.2,41.2z M206.2,55c0-0.7,0.4-1.1,1.1-1.1c0.7,0,1.1,0.4,1.1,1.1s-0.4,1.1-1.1,1.1
			C206.5,56,206.2,55.7,206.2,55z M206.2,57.2c0-0.7,0.4-1.1,1.1-1.1c0.7,0,1.1,0.4,1.1,1.1s-0.4,1.1-1.1,1.1
			C206.5,58.3,206.2,57.9,206.2,57.2z M208.5,38.9c0-0.7,0.4-1.1,1.1-1.1c0.7,0,1.1,0.4,1.1,1.1s-0.4,1.1-1.1,1.1
			C208.8,40,208.5,39.6,208.5,38.9z M208.5,41.2c0-0.7,0.4-1,1.1-1c0.7,0,1.1,0.4,1.1,1c0,0.7-0.4,1.1-1.1,1.1
			C208.8,42.3,208.5,41.9,208.5,41.2z M208.5,55c0-0.7,0.4-1.1,1.1-1.1c0.7,0,1.1,0.4,1.1,1.1s-0.4,1.1-1.1,1.1
			C208.8,56,208.5,55.7,208.5,55z M208.5,57.2c0-0.7,0.4-1.1,1.1-1.1c0.7,0,1.1,0.4,1.1,1.1s-0.4,1.1-1.1,1.1
			C208.8,58.3,208.5,57.9,208.5,57.2z M210.7,38.9c0-0.7,0.3-1.1,1-1.1c0.7,0,1.1,0.4,1.1,1.1s-0.4,1.1-1.1,1.1
			C211.1,40,210.7,39.6,210.7,38.9z M210.7,41.2c0-0.7,0.3-1,1-1c0.7,0,1.1,0.4,1.1,1c0,0.7-0.4,1.1-1.1,1.1
			C211.1,42.3,210.7,41.9,210.7,41.2z M210.7,43.5c0-0.7,0.3-1,1-1c0.7,0,1.1,0.4,1.1,1c0,0.7-0.4,1.1-1.1,1.1
			C211.1,44.5,210.7,44.2,210.7,43.5z M210.7,45.8c0-0.7,0.3-1.1,1-1.1c0.7,0,1.1,0.4,1.1,1.1c0,0.7-0.4,1-1.1,1
			C211.1,46.8,210.7,46.5,210.7,45.8z M210.7,48.1c0-0.7,0.3-1.1,1-1.1c0.7,0,1.1,0.4,1.1,1.1s-0.4,1-1.1,1
			C211.1,49.1,210.7,48.8,210.7,48.1z M210.7,50.4c0-0.7,0.3-1.1,1-1.1c0.7,0,1.1,0.4,1.1,1.1s-0.4,1.1-1.1,1.1
			C211.1,51.4,210.7,51.1,210.7,50.4z M210.7,52.7c0-0.7,0.3-1.1,1-1.1c0.7,0,1.1,0.4,1.1,1.1s-0.4,1.1-1.1,1.1
			C211.1,53.7,210.7,53.4,210.7,52.7z M210.7,55c0-0.7,0.3-1.1,1-1.1c0.7,0,1.1,0.4,1.1,1.1s-0.4,1.1-1.1,1.1
			C211.1,56,210.7,55.7,210.7,55z M210.7,57.2c0-0.7,0.3-1.1,1-1.1c0.7,0,1.1,0.4,1.1,1.1s-0.4,1.1-1.1,1.1
			C211.1,58.3,210.7,57.9,210.7,57.2z M210.7,59.5c0-0.7,0.3-1.1,1-1.1c0.7,0,1.1,0.4,1.1,1.1s-0.4,1.1-1.1,1.1
			C211.1,60.6,210.7,60.2,210.7,59.5z M210.7,61.8c0-0.7,0.3-1.1,1-1.1c0.7,0,1.1,0.4,1.1,1.1s-0.4,1.1-1.1,1.1
			C211.1,62.9,210.7,62.5,210.7,61.8z M213,41.2c0-0.7,0.4-1,1-1c0.7,0,1.1,0.4,1.1,1c0,0.7-0.4,1.1-1.1,1.1
			C213.4,42.3,213,41.9,213,41.2z M213,43.5c0-0.7,0.4-1,1-1c0.7,0,1.1,0.4,1.1,1c0,0.7-0.4,1.1-1.1,1.1
			C213.4,44.5,213,44.2,213,43.5z M213,45.8c0-0.7,0.4-1.1,1-1.1c0.7,0,1.1,0.4,1.1,1.1c0,0.7-0.4,1-1.1,1
			C213.4,46.8,213,46.5,213,45.8z M213,48.1c0-0.7,0.4-1.1,1-1.1c0.7,0,1.1,0.4,1.1,1.1s-0.4,1-1.1,1C213.4,49.1,213,48.8,213,48.1z
			 M213,50.4c0-0.7,0.4-1.1,1-1.1c0.7,0,1.1,0.4,1.1,1.1s-0.4,1.1-1.1,1.1C213.4,51.4,213,51.1,213,50.4z M213,52.7
			c0-0.7,0.4-1.1,1-1.1c0.7,0,1.1,0.4,1.1,1.1s-0.4,1.1-1.1,1.1C213.4,53.7,213,53.4,213,52.7z M213,55c0-0.7,0.4-1.1,1-1.1
			c0.7,0,1.1,0.4,1.1,1.1s-0.4,1.1-1.1,1.1C213.4,56,213,55.7,213,55z M213,57.2c0-0.7,0.4-1.1,1-1.1c0.7,0,1.1,0.4,1.1,1.1
			s-0.4,1.1-1.1,1.1C213.4,58.3,213,57.9,213,57.2z M213,59.5c0-0.7,0.4-1.1,1-1.1c0.7,0,1.1,0.4,1.1,1.1s-0.4,1.1-1.1,1.1
			C213.4,60.6,213,60.2,213,59.5z M213,61.8c0-0.7,0.4-1.1,1-1.1c0.7,0,1.1,0.4,1.1,1.1s-0.4,1.1-1.1,1.1
			C213.4,62.9,213,62.5,213,61.8z"/>
		<path class="st0" d="M218.1,41.2c0-0.7,0.4-1,1.1-1c0.7,0,1.1,0.4,1.1,1c0,0.7-0.4,1.1-1.1,1.1C218.4,42.3,218.1,41.9,218.1,41.2z
			 M218.1,43.5c0-0.7,0.4-1,1.1-1c0.7,0,1.1,0.4,1.1,1c0,0.7-0.4,1.1-1.1,1.1C218.4,44.5,218.1,44.2,218.1,43.5z M218.1,45.8
			c0-0.7,0.4-1.1,1.1-1.1c0.7,0,1.1,0.4,1.1,1.1c0,0.7-0.4,1-1.1,1C218.4,46.8,218.1,46.5,218.1,45.8z M218.1,48.1
			c0-0.7,0.4-1.1,1.1-1.1c0.7,0,1.1,0.4,1.1,1.1s-0.4,1-1.1,1C218.4,49.1,218.1,48.8,218.1,48.1z M218.1,50.4c0-0.7,0.4-1.1,1.1-1.1
			c0.7,0,1.1,0.4,1.1,1.1s-0.4,1.1-1.1,1.1C218.4,51.4,218.1,51.1,218.1,50.4z M218.1,57.2c0-0.7,0.4-1.1,1.1-1.1
			c0.7,0,1.1,0.4,1.1,1.1s-0.4,1.1-1.1,1.1C218.4,58.3,218.1,57.9,218.1,57.2z M218.1,59.5c0-0.7,0.4-1.1,1.1-1.1
			c0.7,0,1.1,0.4,1.1,1.1s-0.4,1.1-1.1,1.1C218.4,60.6,218.1,60.2,218.1,59.5z M220.4,38.9c0-0.7,0.4-1.1,1.1-1.1
			c0.7,0,1.1,0.4,1.1,1.1s-0.4,1.1-1.1,1.1C220.7,40,220.4,39.6,220.4,38.9z M220.4,41.2c0-0.7,0.4-1,1.1-1c0.7,0,1.1,0.4,1.1,1
			c0,0.7-0.4,1.1-1.1,1.1C220.7,42.3,220.4,41.9,220.4,41.2z M220.4,43.5c0-0.7,0.4-1,1.1-1c0.7,0,1.1,0.4,1.1,1
			c0,0.7-0.4,1.1-1.1,1.1C220.7,44.5,220.4,44.2,220.4,43.5z M220.4,45.8c0-0.7,0.4-1.1,1.1-1.1c0.7,0,1.1,0.4,1.1,1.1
			c0,0.7-0.4,1-1.1,1C220.7,46.8,220.4,46.5,220.4,45.8z M220.4,48.1c0-0.7,0.4-1.1,1.1-1.1c0.7,0,1.1,0.4,1.1,1.1s-0.4,1-1.1,1
			C220.7,49.1,220.4,48.8,220.4,48.1z M220.4,50.4c0-0.7,0.4-1.1,1.1-1.1c0.7,0,1.1,0.4,1.1,1.1s-0.4,1.1-1.1,1.1
			C220.7,51.4,220.4,51.1,220.4,50.4z M220.4,52.7c0-0.7,0.4-1.1,1.1-1.1c0.7,0,1.1,0.4,1.1,1.1s-0.4,1.1-1.1,1.1
			C220.7,53.7,220.4,53.4,220.4,52.7z M220.4,57.2c0-0.7,0.4-1.1,1.1-1.1c0.7,0,1.1,0.4,1.1,1.1s-0.4,1.1-1.1,1.1
			C220.7,58.3,220.4,57.9,220.4,57.2z M220.4,59.5c0-0.7,0.4-1.1,1.1-1.1c0.7,0,1.1,0.4,1.1,1.1s-0.4,1.1-1.1,1.1
			C220.7,60.6,220.4,60.2,220.4,59.5z M220.4,61.8c0-0.7,0.4-1.1,1.1-1.1c0.7,0,1.1,0.4,1.1,1.1s-0.4,1.1-1.1,1.1
			C220.7,62.9,220.4,62.5,220.4,61.8z M222.6,38.9c0-0.7,0.4-1.1,1.1-1.1c0.7,0,1.1,0.4,1.1,1.1s-0.4,1.1-1.1,1.1
			C223,40,222.6,39.6,222.6,38.9z M222.6,41.2c0-0.7,0.4-1,1.1-1c0.7,0,1.1,0.4,1.1,1c0,0.7-0.4,1.1-1.1,1.1
			C223,42.3,222.6,41.9,222.6,41.2z M222.6,50.4c0-0.7,0.4-1.1,1.1-1.1c0.7,0,1.1,0.4,1.1,1.1s-0.4,1.1-1.1,1.1
			C223,51.4,222.6,51.1,222.6,50.4z M222.6,52.7c0-0.7,0.4-1.1,1.1-1.1c0.7,0,1.1,0.4,1.1,1.1s-0.4,1.1-1.1,1.1
			C223,53.7,222.6,53.4,222.6,52.7z M222.6,59.5c0-0.7,0.4-1.1,1.1-1.1c0.7,0,1.1,0.4,1.1,1.1s-0.4,1.1-1.1,1.1
			C223,60.6,222.6,60.2,222.6,59.5z M222.6,61.8c0-0.7,0.4-1.1,1.1-1.1c0.7,0,1.1,0.4,1.1,1.1s-0.4,1.1-1.1,1.1
			C223,62.9,222.6,62.5,222.6,61.8z M224.9,38.9c0-0.7,0.4-1.1,1.1-1.1c0.7,0,1.1,0.4,1.1,1.1S226.7,40,226,40
			C225.3,40,224.9,39.6,224.9,38.9z M224.9,41.2c0-0.7,0.4-1,1.1-1c0.7,0,1.1,0.4,1.1,1c0,0.7-0.4,1.1-1.1,1.1
			C225.3,42.3,224.9,41.9,224.9,41.2z M224.9,50.4c0-0.7,0.4-1.1,1.1-1.1c0.7,0,1.1,0.4,1.1,1.1s-0.4,1.1-1.1,1.1
			C225.3,51.4,224.9,51.1,224.9,50.4z M224.9,52.7c0-0.7,0.4-1.1,1.1-1.1c0.7,0,1.1,0.4,1.1,1.1s-0.4,1.1-1.1,1.1
			C225.3,53.7,224.9,53.4,224.9,52.7z M224.9,59.5c0-0.7,0.4-1.1,1.1-1.1c0.7,0,1.1,0.4,1.1,1.1s-0.4,1.1-1.1,1.1
			C225.3,60.6,224.9,60.2,224.9,59.5z M224.9,61.8c0-0.7,0.4-1.1,1.1-1.1c0.7,0,1.1,0.4,1.1,1.1s-0.4,1.1-1.1,1.1
			C225.3,62.9,224.9,62.5,224.9,61.8z M227.2,38.9c0-0.7,0.3-1.1,1-1.1c0.7,0,1.1,0.4,1.1,1.1S229,40,228.3,40
			C227.6,40,227.2,39.6,227.2,38.9z M227.2,41.2c0-0.7,0.3-1,1-1c0.7,0,1.1,0.4,1.1,1c0,0.7-0.4,1.1-1.1,1.1
			C227.6,42.3,227.2,41.9,227.2,41.2z M227.2,43.5c0-0.7,0.3-1,1-1c0.7,0,1.1,0.4,1.1,1c0,0.7-0.4,1.1-1.1,1.1
			C227.6,44.5,227.2,44.2,227.2,43.5z M227.2,45.8c0-0.7,0.3-1,1-1c0.7,0,1.1,0.4,1.1,1c0,0.7-0.4,1.1-1.1,1.1
			C227.6,46.9,227.2,46.5,227.2,45.8z M227.2,50.4c0-0.7,0.3-1.1,1-1.1c0.7,0,1.1,0.4,1.1,1.1s-0.4,1.1-1.1,1.1
			C227.6,51.4,227.2,51.1,227.2,50.4z M227.2,52.7c0-0.7,0.3-1.1,1-1.1c0.7,0,1.1,0.4,1.1,1.1s-0.4,1.1-1.1,1.1
			C227.6,53.7,227.2,53.4,227.2,52.7z M227.2,55c0-0.7,0.3-1.1,1-1.1c0.7,0,1.1,0.4,1.1,1.1S229,56,228.3,56
			C227.6,56,227.2,55.7,227.2,55z M227.2,57.2c0-0.7,0.3-1.1,1-1.1c0.7,0,1.1,0.4,1.1,1.1s-0.4,1.1-1.1,1.1
			C227.6,58.3,227.2,57.9,227.2,57.2z M227.2,59.5c0-0.7,0.3-1.1,1-1.1c0.7,0,1.1,0.4,1.1,1.1s-0.4,1.1-1.1,1.1
			C227.6,60.6,227.2,60.2,227.2,59.5z M227.2,61.8c0-0.7,0.3-1.1,1-1.1c0.7,0,1.1,0.4,1.1,1.1s-0.4,1.1-1.1,1.1
			C227.6,62.9,227.2,62.5,227.2,61.8z M229.5,41.2c0-0.7,0.4-1,1-1c0.7,0,1.1,0.4,1.1,1c0,0.7-0.4,1.1-1.1,1.1
			C229.9,42.3,229.5,41.9,229.5,41.2z M229.5,43.5c0-0.7,0.4-1,1-1c0.7,0,1.1,0.4,1.1,1c0,0.7-0.4,1.1-1.1,1.1
			C229.9,44.5,229.5,44.2,229.5,43.5z M229.5,45.8c0-0.7,0.4-1,1-1c0.7,0,1.1,0.4,1.1,1c0,0.7-0.4,1.1-1.1,1.1
			C229.9,46.9,229.5,46.5,229.5,45.8z M229.5,52.7c0-0.7,0.4-1.1,1-1.1c0.7,0,1.1,0.4,1.1,1.1s-0.4,1.1-1.1,1.1
			C229.9,53.7,229.5,53.4,229.5,52.7z M229.5,55c0-0.7,0.4-1.1,1-1.1c0.7,0,1.1,0.4,1.1,1.1s-0.4,1.1-1.1,1.1
			C229.9,56,229.5,55.7,229.5,55z M229.5,57.2c0-0.7,0.4-1.1,1-1.1c0.7,0,1.1,0.4,1.1,1.1s-0.4,1.1-1.1,1.1
			C229.9,58.3,229.5,57.9,229.5,57.2z M229.5,59.5c0-0.7,0.4-1.1,1-1.1c0.7,0,1.1,0.4,1.1,1.1s-0.4,1.1-1.1,1.1
			C229.9,60.6,229.5,60.2,229.5,59.5z"/>
	</g>
</g>
<g>
	<g>
		<path class="st0" d="M83.6,12.4c0-0.7,0.4-1,1.1-1s1.1,0.4,1.1,1c0,0.7-0.4,1.1-1.1,1.1S83.6,13.1,83.6,12.4z M83.6,14.7
			c0-0.7,0.4-1,1.1-1s1.1,0.4,1.1,1c0,0.7-0.4,1.1-1.1,1.1S83.6,15.4,83.6,14.7z M83.6,17c0-0.7,0.4-1.1,1.1-1.1s1.1,0.4,1.1,1.1
			c0,0.7-0.4,1-1.1,1S83.6,17.7,83.6,17z M83.6,19.3c0-0.7,0.4-1.1,1.1-1.1s1.1,0.4,1.1,1.1s-0.4,1-1.1,1S83.6,20,83.6,19.3z
			 M83.6,21.5c0-0.7,0.4-1.1,1.1-1.1s1.1,0.4,1.1,1.1s-0.4,1.1-1.1,1.1S83.6,22.2,83.6,21.5z M83.6,23.8c0-0.7,0.4-1.1,1.1-1.1
			s1.1,0.4,1.1,1.1c0,0.7-0.4,1.1-1.1,1.1S83.6,24.5,83.6,23.8z M83.6,26.1c0-0.7,0.4-1.1,1.1-1.1s1.1,0.4,1.1,1.1s-0.4,1.1-1.1,1.1
			S83.6,26.8,83.6,26.1z M83.6,28.4c0-0.7,0.4-1.1,1.1-1.1s1.1,0.4,1.1,1.1s-0.4,1.1-1.1,1.1S83.6,29.1,83.6,28.4z M83.6,30.7
			c0-0.7,0.4-1.1,1.1-1.1s1.1,0.4,1.1,1.1s-0.4,1.1-1.1,1.1S83.6,31.4,83.6,30.7z M85.9,10.1c0-0.7,0.4-1.1,1.1-1.1S88,9.4,88,10.1
			s-0.4,1.1-1.1,1.1S85.9,10.8,85.9,10.1z M85.9,12.4c0-0.7,0.4-1,1.1-1s1.1,0.4,1.1,1c0,0.7-0.4,1.1-1.1,1.1S85.9,13.1,85.9,12.4z
			 M85.9,14.7c0-0.7,0.4-1,1.1-1s1.1,0.4,1.1,1c0,0.7-0.4,1.1-1.1,1.1S85.9,15.4,85.9,14.7z M85.9,17c0-0.7,0.4-1.1,1.1-1.1
			S88,16.3,88,17c0,0.7-0.4,1-1.1,1S85.9,17.7,85.9,17z M85.9,19.3c0-0.7,0.4-1.1,1.1-1.1s1.1,0.4,1.1,1.1s-0.4,1-1.1,1
			S85.9,20,85.9,19.3z M85.9,21.5c0-0.7,0.4-1.1,1.1-1.1s1.1,0.4,1.1,1.1s-0.4,1.1-1.1,1.1S85.9,22.2,85.9,21.5z M85.9,23.8
			c0-0.7,0.4-1.1,1.1-1.1s1.1,0.4,1.1,1.1c0,0.7-0.4,1.1-1.1,1.1S85.9,24.5,85.9,23.8z M85.9,26.1c0-0.7,0.4-1.1,1.1-1.1
			s1.1,0.4,1.1,1.1s-0.4,1.1-1.1,1.1S85.9,26.8,85.9,26.1z M85.9,28.4c0-0.7,0.4-1.1,1.1-1.1s1.1,0.4,1.1,1.1s-0.4,1.1-1.1,1.1
			S85.9,29.1,85.9,28.4z M85.9,30.7c0-0.7,0.4-1.1,1.1-1.1S88,30,88,30.7s-0.4,1.1-1.1,1.1S85.9,31.4,85.9,30.7z M85.9,33
			c0-0.7,0.4-1.1,1.1-1.1S88,32.3,88,33s-0.4,1.1-1.1,1.1S85.9,33.7,85.9,33z M88.1,10.1c0-0.7,0.4-1.1,1.1-1.1s1.1,0.4,1.1,1.1
			s-0.4,1.1-1.1,1.1S88.1,10.8,88.1,10.1z M88.1,12.4c0-0.7,0.4-1,1.1-1s1.1,0.4,1.1,1c0,0.7-0.4,1.1-1.1,1.1S88.1,13.1,88.1,12.4z
			 M88.1,30.7c0-0.7,0.4-1.1,1.1-1.1s1.1,0.4,1.1,1.1s-0.4,1.1-1.1,1.1S88.1,31.4,88.1,30.7z M88.1,33c0-0.7,0.4-1.1,1.1-1.1
			s1.1,0.4,1.1,1.1s-0.4,1.1-1.1,1.1S88.1,33.7,88.1,33z M90.4,10.1c0-0.7,0.4-1.1,1.1-1.1s1.1,0.4,1.1,1.1s-0.4,1.1-1.1,1.1
			S90.4,10.8,90.4,10.1z M90.4,12.4c0-0.7,0.4-1,1.1-1s1.1,0.4,1.1,1c0,0.7-0.4,1.1-1.1,1.1S90.4,13.1,90.4,12.4z M90.4,30.7
			c0-0.7,0.4-1.1,1.1-1.1s1.1,0.4,1.1,1.1s-0.4,1.1-1.1,1.1S90.4,31.4,90.4,30.7z M90.4,33c0-0.7,0.4-1.1,1.1-1.1s1.1,0.4,1.1,1.1
			s-0.4,1.1-1.1,1.1S90.4,33.7,90.4,33z M92.7,10.1c0-0.7,0.3-1.1,1-1.1s1.1,0.4,1.1,1.1s-0.4,1.1-1.1,1.1S92.7,10.8,92.7,10.1z
			 M92.7,12.4c0-0.7,0.3-1,1-1s1.1,0.4,1.1,1c0,0.7-0.4,1.1-1.1,1.1S92.7,13.1,92.7,12.4z M92.7,14.7c0-0.7,0.3-1,1-1s1.1,0.4,1.1,1
			c0,0.7-0.4,1.1-1.1,1.1S92.7,15.4,92.7,14.7z M92.7,17c0-0.7,0.3-1.1,1-1.1s1.1,0.4,1.1,1.1c0,0.7-0.4,1-1.1,1S92.7,17.7,92.7,17z
			 M92.7,26.1c0-0.7,0.3-1.1,1-1.1s1.1,0.4,1.1,1.1s-0.4,1.1-1.1,1.1S92.7,26.8,92.7,26.1z M92.7,28.4c0-0.7,0.3-1.1,1-1.1
			s1.1,0.4,1.1,1.1s-0.4,1.1-1.1,1.1S92.7,29.1,92.7,28.4z M92.7,30.7c0-0.7,0.3-1.1,1-1.1s1.1,0.4,1.1,1.1s-0.4,1.1-1.1,1.1
			S92.7,31.4,92.7,30.7z M92.7,33c0-0.7,0.3-1.1,1-1.1s1.1,0.4,1.1,1.1s-0.4,1.1-1.1,1.1S92.7,33.7,92.7,33z M95,12.4
			c0-0.7,0.4-1,1-1c0.7,0,1.1,0.4,1.1,1c0,0.7-0.4,1.1-1.1,1.1C95.4,13.4,95,13.1,95,12.4z M95,14.7c0-0.7,0.4-1,1-1
			c0.7,0,1.1,0.4,1.1,1c0,0.7-0.4,1.1-1.1,1.1C95.4,15.7,95,15.4,95,14.7z M95,17c0-0.7,0.4-1.1,1-1.1c0.7,0,1.1,0.4,1.1,1.1
			c0,0.7-0.4,1-1.1,1C95.4,18,95,17.7,95,17z M95,26.1c0-0.7,0.4-1.1,1-1.1c0.7,0,1.1,0.4,1.1,1.1s-0.4,1.1-1.1,1.1
			C95.4,27.2,95,26.8,95,26.1z M95,28.4c0-0.7,0.4-1.1,1-1.1c0.7,0,1.1,0.4,1.1,1.1s-0.4,1.1-1.1,1.1C95.4,29.5,95,29.1,95,28.4z
			 M95,30.7c0-0.7,0.4-1.1,1-1.1c0.7,0,1.1,0.4,1.1,1.1s-0.4,1.1-1.1,1.1C95.4,31.8,95,31.4,95,30.7z"/>
		<path class="st0" d="M100,10.1c0-0.7,0.4-1.1,1.1-1.1s1.1,0.4,1.1,1.1s-0.4,1.1-1.1,1.1S100,10.8,100,10.1z M100,12.4
			c0-0.7,0.4-1,1.1-1s1.1,0.4,1.1,1c0,0.7-0.4,1.1-1.1,1.1S100,13.1,100,12.4z M100,14.7c0-0.7,0.4-1,1.1-1s1.1,0.4,1.1,1
			c0,0.7-0.4,1.1-1.1,1.1S100,15.4,100,14.7z M100,17c0-0.7,0.4-1.1,1.1-1.1s1.1,0.4,1.1,1.1c0,0.7-0.4,1-1.1,1S100,17.7,100,17z
			 M100,19.3c0-0.7,0.4-1.1,1.1-1.1s1.1,0.4,1.1,1.1s-0.4,1-1.1,1S100,20,100,19.3z M100,21.5c0-0.7,0.4-1.1,1.1-1.1
			s1.1,0.4,1.1,1.1s-0.4,1.1-1.1,1.1S100,22.2,100,21.5z M100,23.8c0-0.7,0.4-1.1,1.1-1.1s1.1,0.4,1.1,1.1c0,0.7-0.4,1.1-1.1,1.1
			S100,24.5,100,23.8z M100,26.1c0-0.7,0.4-1.1,1.1-1.1s1.1,0.4,1.1,1.1s-0.4,1.1-1.1,1.1S100,26.8,100,26.1z M100,28.4
			c0-0.7,0.4-1.1,1.1-1.1s1.1,0.4,1.1,1.1s-0.4,1.1-1.1,1.1S100,29.1,100,28.4z M100,30.7c0-0.7,0.4-1.1,1.1-1.1s1.1,0.4,1.1,1.1
			s-0.4,1.1-1.1,1.1S100,31.4,100,30.7z M100,33c0-0.7,0.4-1.1,1.1-1.1s1.1,0.4,1.1,1.1s-0.4,1.1-1.1,1.1S100,33.7,100,33z
			 M102.3,10.1c0-0.7,0.4-1.1,1.1-1.1s1.1,0.4,1.1,1.1s-0.4,1.1-1.1,1.1S102.3,10.8,102.3,10.1z M102.3,12.4c0-0.7,0.4-1,1.1-1
			s1.1,0.4,1.1,1c0,0.7-0.4,1.1-1.1,1.1S102.3,13.1,102.3,12.4z M102.3,14.7c0-0.7,0.4-1,1.1-1s1.1,0.4,1.1,1c0,0.7-0.4,1.1-1.1,1.1
			S102.3,15.4,102.3,14.7z M102.3,17c0-0.7,0.4-1.1,1.1-1.1s1.1,0.4,1.1,1.1c0,0.7-0.4,1-1.1,1S102.3,17.7,102.3,17z M102.3,19.3
			c0-0.7,0.4-1.1,1.1-1.1s1.1,0.4,1.1,1.1s-0.4,1-1.1,1S102.3,20,102.3,19.3z M102.3,21.5c0-0.7,0.4-1.1,1.1-1.1s1.1,0.4,1.1,1.1
			s-0.4,1.1-1.1,1.1S102.3,22.2,102.3,21.5z M102.3,23.8c0-0.7,0.4-1.1,1.1-1.1s1.1,0.4,1.1,1.1c0,0.7-0.4,1.1-1.1,1.1
			S102.3,24.5,102.3,23.8z M102.3,26.1c0-0.7,0.4-1.1,1.1-1.1s1.1,0.4,1.1,1.1s-0.4,1.1-1.1,1.1S102.3,26.8,102.3,26.1z M102.3,28.4
			c0-0.7,0.4-1.1,1.1-1.1s1.1,0.4,1.1,1.1s-0.4,1.1-1.1,1.1S102.3,29.1,102.3,28.4z M102.3,30.7c0-0.7,0.4-1.1,1.1-1.1
			s1.1,0.4,1.1,1.1s-0.4,1.1-1.1,1.1S102.3,31.4,102.3,30.7z M102.3,33c0-0.7,0.4-1.1,1.1-1.1s1.1,0.4,1.1,1.1s-0.4,1.1-1.1,1.1
			S102.3,33.7,102.3,33z M104.6,30.7c0-0.7,0.4-1.1,1.1-1.1s1.1,0.4,1.1,1.1s-0.4,1.1-1.1,1.1S104.6,31.4,104.6,30.7z M104.6,33
			c0-0.7,0.4-1.1,1.1-1.1s1.1,0.4,1.1,1.1s-0.4,1.1-1.1,1.1S104.6,33.7,104.6,33z M106.9,30.7c0-0.7,0.4-1.1,1.1-1.1
			s1.1,0.4,1.1,1.1s-0.4,1.1-1.1,1.1S106.9,31.4,106.9,30.7z M106.9,33c0-0.7,0.4-1.1,1.1-1.1s1.1,0.4,1.1,1.1s-0.4,1.1-1.1,1.1
			S106.9,33.7,106.9,33z M109.2,30.7c0-0.7,0.3-1.1,1-1.1s1.1,0.4,1.1,1.1s-0.4,1.1-1.1,1.1S109.2,31.4,109.2,30.7z M109.2,33
			c0-0.7,0.3-1.1,1-1.1s1.1,0.4,1.1,1.1s-0.4,1.1-1.1,1.1S109.2,33.7,109.2,33z"/>
		<path class="st0" d="M114.2,10.1c0-0.7,0.4-1.1,1.1-1.1s1.1,0.4,1.1,1.1s-0.4,1.1-1.1,1.1S114.2,10.8,114.2,10.1z M114.2,12.4
			c0-0.7,0.4-1,1.1-1s1.1,0.4,1.1,1c0,0.7-0.4,1.1-1.1,1.1S114.2,13.1,114.2,12.4z M114.2,14.7c0-0.7,0.4-1,1.1-1s1.1,0.4,1.1,1
			c0,0.7-0.4,1.1-1.1,1.1S114.2,15.4,114.2,14.7z M114.2,17c0-0.7,0.4-1.1,1.1-1.1s1.1,0.4,1.1,1.1c0,0.7-0.4,1-1.1,1
			S114.2,17.7,114.2,17z M114.2,19.3c0-0.7,0.4-1.1,1.1-1.1s1.1,0.4,1.1,1.1s-0.4,1-1.1,1S114.2,20,114.2,19.3z M114.2,21.5
			c0-0.7,0.4-1.1,1.1-1.1s1.1,0.4,1.1,1.1s-0.4,1.1-1.1,1.1S114.2,22.2,114.2,21.5z M114.2,23.8c0-0.7,0.4-1.1,1.1-1.1
			s1.1,0.4,1.1,1.1c0,0.7-0.4,1.1-1.1,1.1S114.2,24.5,114.2,23.8z M114.2,26.1c0-0.7,0.4-1.1,1.1-1.1s1.1,0.4,1.1,1.1
			s-0.4,1.1-1.1,1.1S114.2,26.8,114.2,26.1z M114.2,28.4c0-0.7,0.4-1.1,1.1-1.1s1.1,0.4,1.1,1.1s-0.4,1.1-1.1,1.1
			S114.2,29.1,114.2,28.4z M114.2,30.7c0-0.7,0.4-1.1,1.1-1.1s1.1,0.4,1.1,1.1s-0.4,1.1-1.1,1.1S114.2,31.4,114.2,30.7z M114.2,33
			c0-0.7,0.4-1.1,1.1-1.1s1.1,0.4,1.1,1.1s-0.4,1.1-1.1,1.1S114.2,33.7,114.2,33z M116.5,10.1c0-0.7,0.4-1.1,1.1-1.1
			s1.1,0.4,1.1,1.1s-0.4,1.1-1.1,1.1S116.5,10.8,116.5,10.1z M116.5,12.4c0-0.7,0.4-1,1.1-1s1.1,0.4,1.1,1c0,0.7-0.4,1.1-1.1,1.1
			S116.5,13.1,116.5,12.4z M116.5,14.7c0-0.7,0.4-1,1.1-1s1.1,0.4,1.1,1c0,0.7-0.4,1.1-1.1,1.1S116.5,15.4,116.5,14.7z M116.5,17
			c0-0.7,0.4-1.1,1.1-1.1s1.1,0.4,1.1,1.1c0,0.7-0.4,1-1.1,1S116.5,17.7,116.5,17z M116.5,19.3c0-0.7,0.4-1.1,1.1-1.1
			s1.1,0.4,1.1,1.1s-0.4,1-1.1,1S116.5,20,116.5,19.3z M116.5,21.5c0-0.7,0.4-1.1,1.1-1.1s1.1,0.4,1.1,1.1s-0.4,1.1-1.1,1.1
			S116.5,22.2,116.5,21.5z M116.5,23.8c0-0.7,0.4-1.1,1.1-1.1s1.1,0.4,1.1,1.1c0,0.7-0.4,1.1-1.1,1.1S116.5,24.5,116.5,23.8z
			 M116.5,26.1c0-0.7,0.4-1.1,1.1-1.1s1.1,0.4,1.1,1.1s-0.4,1.1-1.1,1.1S116.5,26.8,116.5,26.1z M116.5,28.4c0-0.7,0.4-1.1,1.1-1.1
			s1.1,0.4,1.1,1.1s-0.4,1.1-1.1,1.1S116.5,29.1,116.5,28.4z M116.5,30.7c0-0.7,0.4-1.1,1.1-1.1s1.1,0.4,1.1,1.1s-0.4,1.1-1.1,1.1
			S116.5,31.4,116.5,30.7z M116.5,33c0-0.7,0.4-1.1,1.1-1.1s1.1,0.4,1.1,1.1s-0.4,1.1-1.1,1.1S116.5,33.7,116.5,33z"/>
		<path class="st0" d="M121.6,10.1c0-0.7,0.4-1.1,1.1-1.1s1.1,0.4,1.1,1.1s-0.4,1.1-1.1,1.1S121.6,10.8,121.6,10.1z M121.6,12.4
			c0-0.7,0.4-1,1.1-1s1.1,0.4,1.1,1c0,0.7-0.4,1.1-1.1,1.1S121.6,13.1,121.6,12.4z M121.6,14.7c0-0.7,0.4-1,1.1-1s1.1,0.4,1.1,1
			c0,0.7-0.4,1.1-1.1,1.1S121.6,15.4,121.6,14.7z M121.6,17c0-0.7,0.4-1.1,1.1-1.1s1.1,0.4,1.1,1.1c0,0.7-0.4,1-1.1,1
			S121.6,17.7,121.6,17z M121.6,19.3c0-0.7,0.4-1.1,1.1-1.1s1.1,0.4,1.1,1.1s-0.4,1-1.1,1S121.6,20,121.6,19.3z M121.6,21.5
			c0-0.7,0.4-1.1,1.1-1.1s1.1,0.4,1.1,1.1s-0.4,1.1-1.1,1.1S121.6,22.2,121.6,21.5z M121.6,23.8c0-0.7,0.4-1.1,1.1-1.1
			s1.1,0.4,1.1,1.1c0,0.7-0.4,1.1-1.1,1.1S121.6,24.5,121.6,23.8z M121.6,26.1c0-0.7,0.4-1.1,1.1-1.1s1.1,0.4,1.1,1.1
			s-0.4,1.1-1.1,1.1S121.6,26.8,121.6,26.1z M121.6,28.4c0-0.7,0.4-1.1,1.1-1.1s1.1,0.4,1.1,1.1s-0.4,1.1-1.1,1.1
			S121.6,29.1,121.6,28.4z M121.6,30.7c0-0.7,0.4-1.1,1.1-1.1s1.1,0.4,1.1,1.1s-0.4,1.1-1.1,1.1S121.6,31.4,121.6,30.7z M121.6,33
			c0-0.7,0.4-1.1,1.1-1.1s1.1,0.4,1.1,1.1s-0.4,1.1-1.1,1.1S121.6,33.7,121.6,33z M123.9,10.1c0-0.7,0.4-1.1,1.1-1.1
			s1.1,0.4,1.1,1.1s-0.4,1.1-1.1,1.1S123.9,10.8,123.9,10.1z M123.9,12.4c0-0.7,0.4-1,1.1-1s1.1,0.4,1.1,1c0,0.7-0.4,1.1-1.1,1.1
			S123.9,13.1,123.9,12.4z M123.9,14.7c0-0.7,0.4-1,1.1-1s1.1,0.4,1.1,1c0,0.7-0.4,1.1-1.1,1.1S123.9,15.4,123.9,14.7z M123.9,17
			c0-0.7,0.4-1.1,1.1-1.1s1.1,0.4,1.1,1.1c0,0.7-0.4,1-1.1,1S123.9,17.7,123.9,17z M123.9,19.3c0-0.7,0.4-1.1,1.1-1.1
			s1.1,0.4,1.1,1.1s-0.4,1-1.1,1S123.9,20,123.9,19.3z M123.9,21.5c0-0.7,0.4-1.1,1.1-1.1s1.1,0.4,1.1,1.1s-0.4,1.1-1.1,1.1
			S123.9,22.2,123.9,21.5z M123.9,23.8c0-0.7,0.4-1.1,1.1-1.1s1.1,0.4,1.1,1.1c0,0.7-0.4,1.1-1.1,1.1S123.9,24.5,123.9,23.8z
			 M123.9,26.1c0-0.7,0.4-1.1,1.1-1.1s1.1,0.4,1.1,1.1s-0.4,1.1-1.1,1.1S123.9,26.8,123.9,26.1z M123.9,28.4c0-0.7,0.4-1.1,1.1-1.1
			s1.1,0.4,1.1,1.1s-0.4,1.1-1.1,1.1S123.9,29.1,123.9,28.4z M123.9,30.7c0-0.7,0.4-1.1,1.1-1.1s1.1,0.4,1.1,1.1s-0.4,1.1-1.1,1.1
			S123.9,31.4,123.9,30.7z M123.9,33c0-0.7,0.4-1.1,1.1-1.1s1.1,0.4,1.1,1.1s-0.4,1.1-1.1,1.1S123.9,33.7,123.9,33z M126.2,12.4
			c0-0.7,0.4-1,1.1-1s1.1,0.4,1.1,1c0,0.7-0.4,1.1-1.1,1.1S126.2,13.1,126.2,12.4z M126.2,14.7c0-0.7,0.4-1,1.1-1s1.1,0.4,1.1,1
			c0,0.7-0.4,1.1-1.1,1.1S126.2,15.4,126.2,14.7z M126.2,17c0-0.7,0.4-1.1,1.1-1.1s1.1,0.4,1.1,1.1c0,0.7-0.4,1-1.1,1
			S126.2,17.7,126.2,17z M128.5,14.7c0-0.7,0.4-1,1.1-1c0.7,0,1.1,0.4,1.1,1c0,0.7-0.4,1.1-1.1,1.1
			C128.8,15.7,128.5,15.4,128.5,14.7z M128.5,17c0-0.7,0.4-1.1,1.1-1.1c0.7,0,1.1,0.4,1.1,1.1c0,0.7-0.4,1-1.1,1
			C128.8,18,128.5,17.7,128.5,17z M128.5,19.3c0-0.7,0.4-1.1,1.1-1.1c0.7,0,1.1,0.4,1.1,1.1s-0.4,1-1.1,1
			C128.8,20.3,128.5,20,128.5,19.3z M130.8,10.1c0-0.7,0.3-1.1,1-1.1c0.7,0,1.1,0.4,1.1,1.1s-0.4,1.1-1.1,1.1
			C131.1,11.1,130.8,10.8,130.8,10.1z M130.8,12.4c0-0.7,0.3-1,1-1c0.7,0,1.1,0.4,1.1,1c0,0.7-0.4,1.1-1.1,1.1
			C131.1,13.4,130.8,13.1,130.8,12.4z M130.8,14.7c0-0.7,0.3-1,1-1c0.7,0,1.1,0.4,1.1,1c0,0.7-0.4,1.1-1.1,1.1
			C131.1,15.7,130.8,15.4,130.8,14.7z M130.8,17c0-0.7,0.3-1.1,1-1.1c0.7,0,1.1,0.4,1.1,1.1c0,0.7-0.4,1-1.1,1
			C131.1,18,130.8,17.7,130.8,17z M130.8,19.3c0-0.7,0.3-1.1,1-1.1c0.7,0,1.1,0.4,1.1,1.1s-0.4,1-1.1,1
			C131.1,20.3,130.8,20,130.8,19.3z M130.8,21.5c0-0.7,0.3-1.1,1-1.1c0.7,0,1.1,0.4,1.1,1.1s-0.4,1.1-1.1,1.1
			C131.1,22.6,130.8,22.2,130.8,21.5z M130.8,23.8c0-0.7,0.3-1.1,1-1.1c0.7,0,1.1,0.4,1.1,1.1c0,0.7-0.4,1.1-1.1,1.1
			C131.1,24.9,130.8,24.5,130.8,23.8z M130.8,26.1c0-0.7,0.3-1.1,1-1.1c0.7,0,1.1,0.4,1.1,1.1s-0.4,1.1-1.1,1.1
			C131.1,27.2,130.8,26.8,130.8,26.1z M130.8,28.4c0-0.7,0.3-1.1,1-1.1c0.7,0,1.1,0.4,1.1,1.1s-0.4,1.1-1.1,1.1
			C131.1,29.5,130.8,29.1,130.8,28.4z M130.8,30.7c0-0.7,0.3-1.1,1-1.1c0.7,0,1.1,0.4,1.1,1.1s-0.4,1.1-1.1,1.1
			C131.1,31.8,130.8,31.4,130.8,30.7z M130.8,33c0-0.7,0.3-1.1,1-1.1c0.7,0,1.1,0.4,1.1,1.1s-0.4,1.1-1.1,1.1
			C131.1,34.1,130.8,33.7,130.8,33z M133,10.1c0-0.7,0.4-1.1,1-1.1c0.7,0,1.1,0.4,1.1,1.1s-0.4,1.1-1.1,1.1
			C133.4,11.1,133,10.8,133,10.1z M133,12.4c0-0.7,0.4-1,1-1c0.7,0,1.1,0.4,1.1,1c0,0.7-0.4,1.1-1.1,1.1
			C133.4,13.4,133,13.1,133,12.4z M133,14.7c0-0.7,0.4-1,1-1c0.7,0,1.1,0.4,1.1,1c0,0.7-0.4,1.1-1.1,1.1
			C133.4,15.7,133,15.4,133,14.7z M133,17c0-0.7,0.4-1.1,1-1.1c0.7,0,1.1,0.4,1.1,1.1c0,0.7-0.4,1-1.1,1C133.4,18,133,17.7,133,17z
			 M133,19.3c0-0.7,0.4-1.1,1-1.1c0.7,0,1.1,0.4,1.1,1.1s-0.4,1-1.1,1C133.4,20.3,133,20,133,19.3z M133,21.5c0-0.7,0.4-1.1,1-1.1
			c0.7,0,1.1,0.4,1.1,1.1s-0.4,1.1-1.1,1.1C133.4,22.6,133,22.2,133,21.5z M133,23.8c0-0.7,0.4-1.1,1-1.1c0.7,0,1.1,0.4,1.1,1.1
			c0,0.7-0.4,1.1-1.1,1.1C133.4,24.9,133,24.5,133,23.8z M133,26.1c0-0.7,0.4-1.1,1-1.1c0.7,0,1.1,0.4,1.1,1.1s-0.4,1.1-1.1,1.1
			C133.4,27.2,133,26.8,133,26.1z M133,28.4c0-0.7,0.4-1.1,1-1.1c0.7,0,1.1,0.4,1.1,1.1s-0.4,1.1-1.1,1.1
			C133.4,29.5,133,29.1,133,28.4z M133,30.7c0-0.7,0.4-1.1,1-1.1c0.7,0,1.1,0.4,1.1,1.1s-0.4,1.1-1.1,1.1
			C133.4,31.8,133,31.4,133,30.7z M133,33c0-0.7,0.4-1.1,1-1.1c0.7,0,1.1,0.4,1.1,1.1s-0.4,1.1-1.1,1.1C133.4,34.1,133,33.7,133,33z
			"/>
		<path class="st0" d="M138.1,10.1c0-0.7,0.4-1.1,1.1-1.1c0.7,0,1.1,0.4,1.1,1.1s-0.4,1.1-1.1,1.1C138.4,11.1,138.1,10.8,138.1,10.1
			z M138.1,12.4c0-0.7,0.4-1,1.1-1c0.7,0,1.1,0.4,1.1,1c0,0.7-0.4,1.1-1.1,1.1C138.4,13.4,138.1,13.1,138.1,12.4z M138.1,14.7
			c0-0.7,0.4-1,1.1-1c0.7,0,1.1,0.4,1.1,1c0,0.7-0.4,1.1-1.1,1.1C138.4,15.7,138.1,15.4,138.1,14.7z M138.1,17
			c0-0.7,0.4-1.1,1.1-1.1c0.7,0,1.1,0.4,1.1,1.1c0,0.7-0.4,1-1.1,1C138.4,18,138.1,17.7,138.1,17z M138.1,19.3
			c0-0.7,0.4-1.1,1.1-1.1c0.7,0,1.1,0.4,1.1,1.1s-0.4,1-1.1,1C138.4,20.3,138.1,20,138.1,19.3z M138.1,21.5c0-0.7,0.4-1.1,1.1-1.1
			c0.7,0,1.1,0.4,1.1,1.1s-0.4,1.1-1.1,1.1C138.4,22.6,138.1,22.2,138.1,21.5z M138.1,23.8c0-0.7,0.4-1.1,1.1-1.1
			c0.7,0,1.1,0.4,1.1,1.1c0,0.7-0.4,1.1-1.1,1.1C138.4,24.9,138.1,24.5,138.1,23.8z M138.1,26.1c0-0.7,0.4-1.1,1.1-1.1
			c0.7,0,1.1,0.4,1.1,1.1s-0.4,1.1-1.1,1.1C138.4,27.2,138.1,26.8,138.1,26.1z M138.1,28.4c0-0.7,0.4-1.1,1.1-1.1
			c0.7,0,1.1,0.4,1.1,1.1s-0.4,1.1-1.1,1.1C138.4,29.5,138.1,29.1,138.1,28.4z M138.1,30.7c0-0.7,0.4-1.1,1.1-1.1
			c0.7,0,1.1,0.4,1.1,1.1s-0.4,1.1-1.1,1.1C138.4,31.8,138.1,31.4,138.1,30.7z M138.1,33c0-0.7,0.4-1.1,1.1-1.1
			c0.7,0,1.1,0.4,1.1,1.1s-0.4,1.1-1.1,1.1C138.4,34.1,138.1,33.7,138.1,33z M140.4,10.1c0-0.7,0.4-1.1,1.1-1.1
			c0.7,0,1.1,0.4,1.1,1.1s-0.4,1.1-1.1,1.1C140.7,11.1,140.4,10.8,140.4,10.1z M140.4,12.4c0-0.7,0.4-1,1.1-1c0.7,0,1.1,0.4,1.1,1
			c0,0.7-0.4,1.1-1.1,1.1C140.7,13.4,140.4,13.1,140.4,12.4z M140.4,14.7c0-0.7,0.4-1,1.1-1c0.7,0,1.1,0.4,1.1,1
			c0,0.7-0.4,1.1-1.1,1.1C140.7,15.7,140.4,15.4,140.4,14.7z M140.4,17c0-0.7,0.4-1.1,1.1-1.1c0.7,0,1.1,0.4,1.1,1.1
			c0,0.7-0.4,1-1.1,1C140.7,18,140.4,17.7,140.4,17z M140.4,19.3c0-0.7,0.4-1.1,1.1-1.1c0.7,0,1.1,0.4,1.1,1.1s-0.4,1-1.1,1
			C140.7,20.3,140.4,20,140.4,19.3z M140.4,21.5c0-0.7,0.4-1.1,1.1-1.1c0.7,0,1.1,0.4,1.1,1.1s-0.4,1.1-1.1,1.1
			C140.7,22.6,140.4,22.2,140.4,21.5z M140.4,23.8c0-0.7,0.4-1.1,1.1-1.1c0.7,0,1.1,0.4,1.1,1.1c0,0.7-0.4,1.1-1.1,1.1
			C140.7,24.9,140.4,24.5,140.4,23.8z M140.4,26.1c0-0.7,0.4-1.1,1.1-1.1c0.7,0,1.1,0.4,1.1,1.1s-0.4,1.1-1.1,1.1
			C140.7,27.2,140.4,26.8,140.4,26.1z M140.4,28.4c0-0.7,0.4-1.1,1.1-1.1c0.7,0,1.1,0.4,1.1,1.1s-0.4,1.1-1.1,1.1
			C140.7,29.5,140.4,29.1,140.4,28.4z M140.4,30.7c0-0.7,0.4-1.1,1.1-1.1c0.7,0,1.1,0.4,1.1,1.1s-0.4,1.1-1.1,1.1
			C140.7,31.8,140.4,31.4,140.4,30.7z M140.4,33c0-0.7,0.4-1.1,1.1-1.1c0.7,0,1.1,0.4,1.1,1.1s-0.4,1.1-1.1,1.1
			C140.7,34.1,140.4,33.7,140.4,33z"/>
		<path class="st0" d="M145.4,12.4c0-0.7,0.4-1,1.1-1c0.7,0,1.1,0.4,1.1,1c0,0.7-0.4,1.1-1.1,1.1C145.8,13.4,145.4,13.1,145.4,12.4z
			 M145.4,14.7c0-0.7,0.4-1,1.1-1c0.7,0,1.1,0.4,1.1,1c0,0.7-0.4,1.1-1.1,1.1C145.8,15.7,145.4,15.4,145.4,14.7z M145.4,17
			c0-0.7,0.4-1.1,1.1-1.1c0.7,0,1.1,0.4,1.1,1.1c0,0.7-0.4,1-1.1,1C145.8,18,145.4,17.7,145.4,17z M145.4,19.3
			c0-0.7,0.4-1.1,1.1-1.1c0.7,0,1.1,0.4,1.1,1.1s-0.4,1-1.1,1C145.8,20.3,145.4,20,145.4,19.3z M145.4,21.5c0-0.7,0.4-1.1,1.1-1.1
			c0.7,0,1.1,0.4,1.1,1.1s-0.4,1.1-1.1,1.1C145.8,22.6,145.4,22.2,145.4,21.5z M145.4,23.8c0-0.7,0.4-1.1,1.1-1.1
			c0.7,0,1.1,0.4,1.1,1.1c0,0.7-0.4,1.1-1.1,1.1C145.8,24.9,145.4,24.5,145.4,23.8z M145.4,26.1c0-0.7,0.4-1.1,1.1-1.1
			c0.7,0,1.1,0.4,1.1,1.1s-0.4,1.1-1.1,1.1C145.8,27.2,145.4,26.8,145.4,26.1z M145.4,28.4c0-0.7,0.4-1.1,1.1-1.1
			c0.7,0,1.1,0.4,1.1,1.1s-0.4,1.1-1.1,1.1C145.8,29.5,145.4,29.1,145.4,28.4z M145.4,30.7c0-0.7,0.4-1.1,1.1-1.1
			c0.7,0,1.1,0.4,1.1,1.1s-0.4,1.1-1.1,1.1C145.8,31.8,145.4,31.4,145.4,30.7z M147.7,10.1c0-0.7,0.4-1.1,1.1-1.1
			c0.7,0,1.1,0.4,1.1,1.1s-0.4,1.1-1.1,1.1C148.1,11.1,147.7,10.8,147.7,10.1z M147.7,12.4c0-0.7,0.4-1,1.1-1c0.7,0,1.1,0.4,1.1,1
			c0,0.7-0.4,1.1-1.1,1.1C148.1,13.4,147.7,13.1,147.7,12.4z M147.7,14.7c0-0.7,0.4-1,1.1-1c0.7,0,1.1,0.4,1.1,1
			c0,0.7-0.4,1.1-1.1,1.1C148.1,15.7,147.7,15.4,147.7,14.7z M147.7,17c0-0.7,0.4-1.1,1.1-1.1c0.7,0,1.1,0.4,1.1,1.1
			c0,0.7-0.4,1-1.1,1C148.1,18,147.7,17.7,147.7,17z M147.7,19.3c0-0.7,0.4-1.1,1.1-1.1c0.7,0,1.1,0.4,1.1,1.1s-0.4,1-1.1,1
			C148.1,20.3,147.7,20,147.7,19.3z M147.7,21.5c0-0.7,0.4-1.1,1.1-1.1c0.7,0,1.1,0.4,1.1,1.1s-0.4,1.1-1.1,1.1
			C148.1,22.6,147.7,22.2,147.7,21.5z M147.7,23.8c0-0.7,0.4-1.1,1.1-1.1c0.7,0,1.1,0.4,1.1,1.1c0,0.7-0.4,1.1-1.1,1.1
			C148.1,24.9,147.7,24.5,147.7,23.8z M147.7,26.1c0-0.7,0.4-1.1,1.1-1.1c0.7,0,1.1,0.4,1.1,1.1s-0.4,1.1-1.1,1.1
			C148.1,27.2,147.7,26.8,147.7,26.1z M147.7,28.4c0-0.7,0.4-1.1,1.1-1.1c0.7,0,1.1,0.4,1.1,1.1s-0.4,1.1-1.1,1.1
			C148.1,29.5,147.7,29.1,147.7,28.4z M147.7,30.7c0-0.7,0.4-1.1,1.1-1.1c0.7,0,1.1,0.4,1.1,1.1s-0.4,1.1-1.1,1.1
			C148.1,31.8,147.7,31.4,147.7,30.7z M147.7,33c0-0.7,0.4-1.1,1.1-1.1c0.7,0,1.1,0.4,1.1,1.1s-0.4,1.1-1.1,1.1
			C148.1,34.1,147.7,33.7,147.7,33z M150,10.1c0-0.7,0.4-1.1,1.1-1.1c0.7,0,1.1,0.4,1.1,1.1s-0.4,1.1-1.1,1.1
			C150.4,11.1,150,10.8,150,10.1z M150,12.4c0-0.7,0.4-1,1.1-1c0.7,0,1.1,0.4,1.1,1c0,0.7-0.4,1.1-1.1,1.1
			C150.4,13.4,150,13.1,150,12.4z M150,30.7c0-0.7,0.4-1.1,1.1-1.1c0.7,0,1.1,0.4,1.1,1.1s-0.4,1.1-1.1,1.1
			C150.4,31.8,150,31.4,150,30.7z M150,33c0-0.7,0.4-1.1,1.1-1.1c0.7,0,1.1,0.4,1.1,1.1s-0.4,1.1-1.1,1.1
			C150.4,34.1,150,33.7,150,33z M152.3,10.1c0-0.7,0.4-1.1,1.1-1.1c0.7,0,1.1,0.4,1.1,1.1s-0.4,1.1-1.1,1.1
			C152.6,11.1,152.3,10.8,152.3,10.1z M152.3,12.4c0-0.7,0.4-1,1.1-1c0.7,0,1.1,0.4,1.1,1c0,0.7-0.4,1.1-1.1,1.1
			C152.6,13.4,152.3,13.1,152.3,12.4z M152.3,30.7c0-0.7,0.4-1.1,1.1-1.1c0.7,0,1.1,0.4,1.1,1.1s-0.4,1.1-1.1,1.1
			C152.6,31.8,152.3,31.4,152.3,30.7z M152.3,33c0-0.7,0.4-1.1,1.1-1.1c0.7,0,1.1,0.4,1.1,1.1s-0.4,1.1-1.1,1.1
			C152.6,34.1,152.3,33.7,152.3,33z M154.6,10.1c0-0.7,0.3-1.1,1-1.1c0.7,0,1.1,0.4,1.1,1.1s-0.4,1.1-1.1,1.1
			C154.9,11.1,154.6,10.8,154.6,10.1z M154.6,12.4c0-0.7,0.3-1,1-1c0.7,0,1.1,0.4,1.1,1c0,0.7-0.4,1.1-1.1,1.1
			C154.9,13.4,154.6,13.1,154.6,12.4z M154.6,14.7c0-0.7,0.3-1,1-1c0.7,0,1.1,0.4,1.1,1c0,0.7-0.4,1.1-1.1,1.1
			C154.9,15.7,154.6,15.4,154.6,14.7z M154.6,17c0-0.7,0.3-1.1,1-1.1c0.7,0,1.1,0.4,1.1,1.1c0,0.7-0.4,1-1.1,1
			C154.9,18,154.6,17.7,154.6,17z M154.6,26.1c0-0.7,0.3-1.1,1-1.1c0.7,0,1.1,0.4,1.1,1.1s-0.4,1.1-1.1,1.1
			C154.9,27.2,154.6,26.8,154.6,26.1z M154.6,28.4c0-0.7,0.3-1.1,1-1.1c0.7,0,1.1,0.4,1.1,1.1s-0.4,1.1-1.1,1.1
			C154.9,29.5,154.6,29.1,154.6,28.4z M154.6,30.7c0-0.7,0.3-1.1,1-1.1c0.7,0,1.1,0.4,1.1,1.1s-0.4,1.1-1.1,1.1
			C154.9,31.8,154.6,31.4,154.6,30.7z M154.6,33c0-0.7,0.3-1.1,1-1.1c0.7,0,1.1,0.4,1.1,1.1s-0.4,1.1-1.1,1.1
			C154.9,34.1,154.6,33.7,154.6,33z M156.9,12.4c0-0.7,0.4-1,1-1c0.7,0,1.1,0.4,1.1,1c0,0.7-0.4,1.1-1.1,1.1
			C157.2,13.4,156.9,13.1,156.9,12.4z M156.9,14.7c0-0.7,0.4-1,1-1c0.7,0,1.1,0.4,1.1,1c0,0.7-0.4,1.1-1.1,1.1
			C157.2,15.7,156.9,15.4,156.9,14.7z M156.9,17c0-0.7,0.4-1.1,1-1.1c0.7,0,1.1,0.4,1.1,1.1c0,0.7-0.4,1-1.1,1
			C157.2,18,156.9,17.7,156.9,17z M156.9,26.1c0-0.7,0.4-1.1,1-1.1c0.7,0,1.1,0.4,1.1,1.1s-0.4,1.1-1.1,1.1
			C157.2,27.2,156.9,26.8,156.9,26.1z M156.9,28.4c0-0.7,0.4-1.1,1-1.1c0.7,0,1.1,0.4,1.1,1.1s-0.4,1.1-1.1,1.1
			C157.2,29.5,156.9,29.1,156.9,28.4z M156.9,30.7c0-0.7,0.4-1.1,1-1.1c0.7,0,1.1,0.4,1.1,1.1s-0.4,1.1-1.1,1.1
			C157.2,31.8,156.9,31.4,156.9,30.7z"/>
		<path class="st0" d="M161.9,12.4c0-0.7,0.4-1,1.1-1c0.7,0,1.1,0.4,1.1,1c0,0.7-0.4,1.1-1.1,1.1C162.3,13.4,161.9,13.1,161.9,12.4z
			 M161.9,14.7c0-0.7,0.4-1,1.1-1c0.7,0,1.1,0.4,1.1,1c0,0.7-0.4,1.1-1.1,1.1C162.3,15.7,161.9,15.4,161.9,14.7z M161.9,17
			c0-0.7,0.4-1.1,1.1-1.1c0.7,0,1.1,0.4,1.1,1.1c0,0.7-0.4,1-1.1,1C162.3,18,161.9,17.7,161.9,17z M161.9,19.3
			c0-0.7,0.4-1.1,1.1-1.1c0.7,0,1.1,0.4,1.1,1.1s-0.4,1-1.1,1C162.3,20.3,161.9,20,161.9,19.3z M161.9,21.5c0-0.7,0.4-1.1,1.1-1.1
			c0.7,0,1.1,0.4,1.1,1.1s-0.4,1.1-1.1,1.1C162.3,22.6,161.9,22.2,161.9,21.5z M161.9,23.8c0-0.7,0.4-1.1,1.1-1.1
			c0.7,0,1.1,0.4,1.1,1.1c0,0.7-0.4,1.1-1.1,1.1C162.3,24.9,161.9,24.5,161.9,23.8z M161.9,26.1c0-0.7,0.4-1.1,1.1-1.1
			c0.7,0,1.1,0.4,1.1,1.1s-0.4,1.1-1.1,1.1C162.3,27.2,161.9,26.8,161.9,26.1z M161.9,28.4c0-0.7,0.4-1.1,1.1-1.1
			c0.7,0,1.1,0.4,1.1,1.1s-0.4,1.1-1.1,1.1C162.3,29.5,161.9,29.1,161.9,28.4z M161.9,30.7c0-0.7,0.4-1.1,1.1-1.1
			c0.7,0,1.1,0.4,1.1,1.1s-0.4,1.1-1.1,1.1C162.3,31.8,161.9,31.4,161.9,30.7z M161.9,33c0-0.7,0.4-1.1,1.1-1.1
			c0.7,0,1.1,0.4,1.1,1.1s-0.4,1.1-1.1,1.1C162.3,34.1,161.9,33.7,161.9,33z M164.2,10.1c0-0.7,0.4-1.1,1.1-1.1
			c0.7,0,1.1,0.4,1.1,1.1s-0.4,1.1-1.1,1.1C164.5,11.1,164.2,10.8,164.2,10.1z M164.2,12.4c0-0.7,0.4-1,1.1-1c0.7,0,1.1,0.4,1.1,1
			c0,0.7-0.4,1.1-1.1,1.1C164.5,13.4,164.2,13.1,164.2,12.4z M164.2,14.7c0-0.7,0.4-1,1.1-1c0.7,0,1.1,0.4,1.1,1
			c0,0.7-0.4,1.1-1.1,1.1C164.5,15.7,164.2,15.4,164.2,14.7z M164.2,17c0-0.7,0.4-1.1,1.1-1.1c0.7,0,1.1,0.4,1.1,1.1
			c0,0.7-0.4,1-1.1,1C164.5,18,164.2,17.7,164.2,17z M164.2,19.3c0-0.7,0.4-1.1,1.1-1.1c0.7,0,1.1,0.4,1.1,1.1s-0.4,1-1.1,1
			C164.5,20.3,164.2,20,164.2,19.3z M164.2,21.5c0-0.7,0.4-1.1,1.1-1.1c0.7,0,1.1,0.4,1.1,1.1s-0.4,1.1-1.1,1.1
			C164.5,22.6,164.2,22.2,164.2,21.5z M164.2,23.8c0-0.7,0.4-1.1,1.1-1.1c0.7,0,1.1,0.4,1.1,1.1c0,0.7-0.4,1.1-1.1,1.1
			C164.5,24.9,164.2,24.5,164.2,23.8z M164.2,26.1c0-0.7,0.4-1.1,1.1-1.1c0.7,0,1.1,0.4,1.1,1.1s-0.4,1.1-1.1,1.1
			C164.5,27.2,164.2,26.8,164.2,26.1z M164.2,28.4c0-0.7,0.4-1.1,1.1-1.1c0.7,0,1.1,0.4,1.1,1.1s-0.4,1.1-1.1,1.1
			C164.5,29.5,164.2,29.1,164.2,28.4z M164.2,30.7c0-0.7,0.4-1.1,1.1-1.1c0.7,0,1.1,0.4,1.1,1.1s-0.4,1.1-1.1,1.1
			C164.5,31.8,164.2,31.4,164.2,30.7z M164.2,33c0-0.7,0.4-1.1,1.1-1.1c0.7,0,1.1,0.4,1.1,1.1s-0.4,1.1-1.1,1.1
			C164.5,34.1,164.2,33.7,164.2,33z M166.5,10.1c0-0.7,0.4-1.1,1.1-1.1c0.7,0,1.1,0.4,1.1,1.1s-0.4,1.1-1.1,1.1
			C166.8,11.1,166.5,10.8,166.5,10.1z M166.5,12.4c0-0.7,0.4-1,1.1-1c0.7,0,1.1,0.4,1.1,1c0,0.7-0.4,1.1-1.1,1.1
			C166.8,13.4,166.5,13.1,166.5,12.4z M166.5,26.1c0-0.7,0.4-1.1,1.1-1.1c0.7,0,1.1,0.4,1.1,1.1s-0.4,1.1-1.1,1.1
			C166.8,27.2,166.5,26.8,166.5,26.1z M166.5,28.4c0-0.7,0.4-1.1,1.1-1.1c0.7,0,1.1,0.4,1.1,1.1s-0.4,1.1-1.1,1.1
			C166.8,29.5,166.5,29.1,166.5,28.4z M168.8,10.1c0-0.7,0.4-1.1,1.1-1.1c0.7,0,1.1,0.4,1.1,1.1s-0.4,1.1-1.1,1.1
			C169.1,11.1,168.8,10.8,168.8,10.1z M168.8,12.4c0-0.7,0.4-1,1.1-1c0.7,0,1.1,0.4,1.1,1c0,0.7-0.4,1.1-1.1,1.1
			C169.1,13.4,168.8,13.1,168.8,12.4z M168.8,26.1c0-0.7,0.4-1.1,1.1-1.1c0.7,0,1.1,0.4,1.1,1.1s-0.4,1.1-1.1,1.1
			C169.1,27.2,168.8,26.8,168.8,26.1z M168.8,28.4c0-0.7,0.4-1.1,1.1-1.1c0.7,0,1.1,0.4,1.1,1.1s-0.4,1.1-1.1,1.1
			C169.1,29.5,168.8,29.1,168.8,28.4z M171.1,10.1c0-0.7,0.3-1.1,1-1.1c0.7,0,1.1,0.4,1.1,1.1s-0.4,1.1-1.1,1.1
			C171.4,11.1,171.1,10.8,171.1,10.1z M171.1,12.4c0-0.7,0.3-1,1-1c0.7,0,1.1,0.4,1.1,1c0,0.7-0.4,1.1-1.1,1.1
			C171.4,13.4,171.1,13.1,171.1,12.4z M171.1,14.7c0-0.7,0.3-1,1-1c0.7,0,1.1,0.4,1.1,1c0,0.7-0.4,1.1-1.1,1.1
			C171.4,15.7,171.1,15.4,171.1,14.7z M171.1,17c0-0.7,0.3-1.1,1-1.1c0.7,0,1.1,0.4,1.1,1.1c0,0.7-0.4,1-1.1,1
			C171.4,18,171.1,17.7,171.1,17z M171.1,19.3c0-0.7,0.3-1.1,1-1.1c0.7,0,1.1,0.4,1.1,1.1s-0.4,1-1.1,1
			C171.4,20.3,171.1,20,171.1,19.3z M171.1,21.5c0-0.7,0.3-1.1,1-1.1c0.7,0,1.1,0.4,1.1,1.1s-0.4,1.1-1.1,1.1
			C171.4,22.6,171.1,22.2,171.1,21.5z M171.1,23.8c0-0.7,0.3-1.1,1-1.1c0.7,0,1.1,0.4,1.1,1.1c0,0.7-0.4,1.1-1.1,1.1
			C171.4,24.9,171.1,24.5,171.1,23.8z M171.1,26.1c0-0.7,0.3-1.1,1-1.1c0.7,0,1.1,0.4,1.1,1.1s-0.4,1.1-1.1,1.1
			C171.4,27.2,171.1,26.8,171.1,26.1z M171.1,28.4c0-0.7,0.3-1.1,1-1.1c0.7,0,1.1,0.4,1.1,1.1s-0.4,1.1-1.1,1.1
			C171.4,29.5,171.1,29.1,171.1,28.4z M171.1,30.7c0-0.7,0.3-1.1,1-1.1c0.7,0,1.1,0.4,1.1,1.1s-0.4,1.1-1.1,1.1
			C171.4,31.8,171.1,31.4,171.1,30.7z M171.1,33c0-0.7,0.3-1.1,1-1.1c0.7,0,1.1,0.4,1.1,1.1s-0.4,1.1-1.1,1.1
			C171.4,34.1,171.1,33.7,171.1,33z M173.4,12.4c0-0.7,0.4-1,1-1c0.7,0,1.1,0.4,1.1,1c0,0.7-0.4,1.1-1.1,1.1
			C173.7,13.4,173.4,13.1,173.4,12.4z M173.4,14.7c0-0.7,0.4-1,1-1c0.7,0,1.1,0.4,1.1,1c0,0.7-0.4,1.1-1.1,1.1
			C173.7,15.7,173.4,15.4,173.4,14.7z M173.4,17c0-0.7,0.4-1.1,1-1.1c0.7,0,1.1,0.4,1.1,1.1c0,0.7-0.4,1-1.1,1
			C173.7,18,173.4,17.7,173.4,17z M173.4,19.3c0-0.7,0.4-1.1,1-1.1c0.7,0,1.1,0.4,1.1,1.1s-0.4,1-1.1,1
			C173.7,20.3,173.4,20,173.4,19.3z M173.4,21.5c0-0.7,0.4-1.1,1-1.1c0.7,0,1.1,0.4,1.1,1.1s-0.4,1.1-1.1,1.1
			C173.7,22.6,173.4,22.2,173.4,21.5z M173.4,23.8c0-0.7,0.4-1.1,1-1.1c0.7,0,1.1,0.4,1.1,1.1c0,0.7-0.4,1.1-1.1,1.1
			C173.7,24.9,173.4,24.5,173.4,23.8z M173.4,26.1c0-0.7,0.4-1.1,1-1.1c0.7,0,1.1,0.4,1.1,1.1s-0.4,1.1-1.1,1.1
			C173.7,27.2,173.4,26.8,173.4,26.1z M173.4,28.4c0-0.7,0.4-1.1,1-1.1c0.7,0,1.1,0.4,1.1,1.1s-0.4,1.1-1.1,1.1
			C173.7,29.5,173.4,29.1,173.4,28.4z M173.4,30.7c0-0.7,0.4-1.1,1-1.1c0.7,0,1.1,0.4,1.1,1.1s-0.4,1.1-1.1,1.1
			C173.7,31.8,173.4,31.4,173.4,30.7z M173.4,33c0-0.7,0.4-1.1,1-1.1c0.7,0,1.1,0.4,1.1,1.1s-0.4,1.1-1.1,1.1
			C173.7,34.1,173.4,33.7,173.4,33z"/>
		<path class="st0" d="M178.4,12.4c0-0.7,0.4-1,1.1-1c0.7,0,1.1,0.4,1.1,1c0,0.7-0.4,1.1-1.1,1.1C178.7,13.4,178.4,13.1,178.4,12.4z
			 M178.4,14.7c0-0.7,0.4-1,1.1-1c0.7,0,1.1,0.4,1.1,1c0,0.7-0.4,1.1-1.1,1.1C178.7,15.7,178.4,15.4,178.4,14.7z M178.4,17
			c0-0.7,0.4-1.1,1.1-1.1c0.7,0,1.1,0.4,1.1,1.1c0,0.7-0.4,1-1.1,1C178.7,18,178.4,17.7,178.4,17z M178.4,19.3
			c0-0.7,0.4-1.1,1.1-1.1c0.7,0,1.1,0.4,1.1,1.1s-0.4,1-1.1,1C178.7,20.3,178.4,20,178.4,19.3z M178.4,21.5c0-0.7,0.4-1.1,1.1-1.1
			c0.7,0,1.1,0.4,1.1,1.1s-0.4,1.1-1.1,1.1C178.7,22.6,178.4,22.2,178.4,21.5z M178.4,28.4c0-0.7,0.4-1.1,1.1-1.1
			c0.7,0,1.1,0.4,1.1,1.1s-0.4,1.1-1.1,1.1C178.7,29.5,178.4,29.1,178.4,28.4z M178.4,30.7c0-0.7,0.4-1.1,1.1-1.1
			c0.7,0,1.1,0.4,1.1,1.1s-0.4,1.1-1.1,1.1C178.7,31.8,178.4,31.4,178.4,30.7z M180.7,10.1c0-0.7,0.4-1.1,1.1-1.1
			c0.7,0,1.1,0.4,1.1,1.1s-0.4,1.1-1.1,1.1C181,11.1,180.7,10.8,180.7,10.1z M180.7,12.4c0-0.7,0.4-1,1.1-1c0.7,0,1.1,0.4,1.1,1
			c0,0.7-0.4,1.1-1.1,1.1C181,13.4,180.7,13.1,180.7,12.4z M180.7,14.7c0-0.7,0.4-1,1.1-1c0.7,0,1.1,0.4,1.1,1
			c0,0.7-0.4,1.1-1.1,1.1C181,15.7,180.7,15.4,180.7,14.7z M180.7,17c0-0.7,0.4-1.1,1.1-1.1c0.7,0,1.1,0.4,1.1,1.1
			c0,0.7-0.4,1-1.1,1C181,18,180.7,17.7,180.7,17z M180.7,19.3c0-0.7,0.4-1.1,1.1-1.1c0.7,0,1.1,0.4,1.1,1.1s-0.4,1-1.1,1
			C181,20.3,180.7,20,180.7,19.3z M180.7,21.5c0-0.7,0.4-1.1,1.1-1.1c0.7,0,1.1,0.4,1.1,1.1s-0.4,1.1-1.1,1.1
			C181,22.6,180.7,22.2,180.7,21.5z M180.7,23.8c0-0.7,0.4-1.1,1.1-1.1c0.7,0,1.1,0.4,1.1,1.1c0,0.7-0.4,1.1-1.1,1.1
			C181,24.9,180.7,24.5,180.7,23.8z M180.7,28.4c0-0.7,0.4-1.1,1.1-1.1c0.7,0,1.1,0.4,1.1,1.1s-0.4,1.1-1.1,1.1
			C181,29.5,180.7,29.1,180.7,28.4z M180.7,30.7c0-0.7,0.4-1.1,1.1-1.1c0.7,0,1.1,0.4,1.1,1.1s-0.4,1.1-1.1,1.1
			C181,31.8,180.7,31.4,180.7,30.7z M180.7,33c0-0.7,0.4-1.1,1.1-1.1c0.7,0,1.1,0.4,1.1,1.1s-0.4,1.1-1.1,1.1
			C181,34.1,180.7,33.7,180.7,33z M183,10.1c0-0.7,0.4-1.1,1.1-1.1s1.1,0.4,1.1,1.1s-0.4,1.1-1.1,1.1S183,10.8,183,10.1z M183,12.4
			c0-0.7,0.4-1,1.1-1s1.1,0.4,1.1,1c0,0.7-0.4,1.1-1.1,1.1S183,13.1,183,12.4z M183,21.5c0-0.7,0.4-1.1,1.1-1.1s1.1,0.4,1.1,1.1
			s-0.4,1.1-1.1,1.1S183,22.2,183,21.5z M183,23.8c0-0.7,0.4-1.1,1.1-1.1s1.1,0.4,1.1,1.1c0,0.7-0.4,1.1-1.1,1.1S183,24.5,183,23.8z
			 M183,30.7c0-0.7,0.4-1.1,1.1-1.1s1.1,0.4,1.1,1.1s-0.4,1.1-1.1,1.1S183,31.4,183,30.7z M183,33c0-0.7,0.4-1.1,1.1-1.1
			s1.1,0.4,1.1,1.1s-0.4,1.1-1.1,1.1S183,33.7,183,33z M185.3,10.1c0-0.7,0.4-1.1,1.1-1.1c0.7,0,1.1,0.4,1.1,1.1s-0.4,1.1-1.1,1.1
			C185.6,11.1,185.3,10.8,185.3,10.1z M185.3,12.4c0-0.7,0.4-1,1.1-1c0.7,0,1.1,0.4,1.1,1c0,0.7-0.4,1.1-1.1,1.1
			C185.6,13.4,185.3,13.1,185.3,12.4z M185.3,21.5c0-0.7,0.4-1.1,1.1-1.1c0.7,0,1.1,0.4,1.1,1.1s-0.4,1.1-1.1,1.1
			C185.6,22.6,185.3,22.2,185.3,21.5z M185.3,23.8c0-0.7,0.4-1.1,1.1-1.1c0.7,0,1.1,0.4,1.1,1.1c0,0.7-0.4,1.1-1.1,1.1
			C185.6,24.9,185.3,24.5,185.3,23.8z M185.3,30.7c0-0.7,0.4-1.1,1.1-1.1c0.7,0,1.1,0.4,1.1,1.1s-0.4,1.1-1.1,1.1
			C185.6,31.8,185.3,31.4,185.3,30.7z M185.3,33c0-0.7,0.4-1.1,1.1-1.1c0.7,0,1.1,0.4,1.1,1.1s-0.4,1.1-1.1,1.1
			C185.6,34.1,185.3,33.7,185.3,33z M187.6,10.1c0-0.7,0.3-1.1,1-1.1c0.7,0,1.1,0.4,1.1,1.1s-0.4,1.1-1.1,1.1
			C187.9,11.1,187.6,10.8,187.6,10.1z M187.6,12.4c0-0.7,0.3-1,1-1c0.7,0,1.1,0.4,1.1,1c0,0.7-0.4,1.1-1.1,1.1
			C187.9,13.4,187.6,13.1,187.6,12.4z M187.6,14.7c0-0.7,0.3-1,1-1c0.7,0,1.1,0.4,1.1,1c0,0.7-0.4,1.1-1.1,1.1
			C187.9,15.7,187.6,15.4,187.6,14.7z M187.6,17c0-0.7,0.3-1,1-1c0.7,0,1.1,0.4,1.1,1c0,0.7-0.4,1.1-1.1,1.1
			C187.9,18,187.6,17.7,187.6,17z M187.6,21.5c0-0.7,0.3-1.1,1-1.1c0.7,0,1.1,0.4,1.1,1.1s-0.4,1.1-1.1,1.1
			C187.9,22.6,187.6,22.2,187.6,21.5z M187.6,23.8c0-0.7,0.3-1.1,1-1.1c0.7,0,1.1,0.4,1.1,1.1c0,0.7-0.4,1.1-1.1,1.1
			C187.9,24.9,187.6,24.5,187.6,23.8z M187.6,26.1c0-0.7,0.3-1.1,1-1.1c0.7,0,1.1,0.4,1.1,1.1s-0.4,1.1-1.1,1.1
			C187.9,27.2,187.6,26.8,187.6,26.1z M187.6,28.4c0-0.7,0.3-1.1,1-1.1c0.7,0,1.1,0.4,1.1,1.1s-0.4,1.1-1.1,1.1
			C187.9,29.5,187.6,29.1,187.6,28.4z M187.6,30.7c0-0.7,0.3-1.1,1-1.1c0.7,0,1.1,0.4,1.1,1.1s-0.4,1.1-1.1,1.1
			C187.9,31.8,187.6,31.4,187.6,30.7z M187.6,33c0-0.7,0.3-1.1,1-1.1c0.7,0,1.1,0.4,1.1,1.1s-0.4,1.1-1.1,1.1
			C187.9,34.1,187.6,33.7,187.6,33z M189.8,12.4c0-0.7,0.4-1,1-1c0.7,0,1.1,0.4,1.1,1c0,0.7-0.4,1.1-1.1,1.1
			C190.2,13.4,189.8,13.1,189.8,12.4z M189.8,14.7c0-0.7,0.4-1,1-1c0.7,0,1.1,0.4,1.1,1c0,0.7-0.4,1.1-1.1,1.1
			C190.2,15.7,189.8,15.4,189.8,14.7z M189.8,17c0-0.7,0.4-1,1-1c0.7,0,1.1,0.4,1.1,1c0,0.7-0.4,1.1-1.1,1.1
			C190.2,18,189.8,17.7,189.8,17z M189.8,23.8c0-0.7,0.4-1.1,1-1.1c0.7,0,1.1,0.4,1.1,1.1c0,0.7-0.4,1.1-1.1,1.1
			C190.2,24.9,189.8,24.5,189.8,23.8z M189.8,26.1c0-0.7,0.4-1.1,1-1.1c0.7,0,1.1,0.4,1.1,1.1s-0.4,1.1-1.1,1.1
			C190.2,27.2,189.8,26.8,189.8,26.1z M189.8,28.4c0-0.7,0.4-1.1,1-1.1c0.7,0,1.1,0.4,1.1,1.1s-0.4,1.1-1.1,1.1
			C190.2,29.5,189.8,29.1,189.8,28.4z M189.8,30.7c0-0.7,0.4-1.1,1-1.1c0.7,0,1.1,0.4,1.1,1.1s-0.4,1.1-1.1,1.1
			C190.2,31.8,189.8,31.4,189.8,30.7z"/>
	</g>
</g>
</svg>
