<!-- Generator: Adobe Illustrator 19.2.1, SVG Export Plug-In  -->
<svg version="1.1"
	 xmlns="http://www.w3.org/2000/svg" xmlns:xlink="http://www.w3.org/1999/xlink" xmlns:a="http://ns.adobe.com/AdobeSVGViewerExtensions/3.0/"
	 x="0px" y="0px" width="216.6px" height="216.6px" viewBox="0 0 216.6 216.6" enable-background="new 0 0 216.6 216.6"
	 xml:space="preserve">
<defs>
</defs>
<path fill="#fff" d="M176,0c11.2,0,20.8,4,28.7,11.9s11.9,17.5,11.9,28.7V176c0,11.2-4,20.8-11.9,28.7s-17.5,11.9-28.7,11.9h-26.5v-83.9h28.1
	l4.2-32.7h-32.3V79.1c0-5.3,1.1-9.2,3.3-11.8c2.2-2.6,6.5-3.9,12.9-3.9l17.2-0.1V34c-5.9-0.8-14.3-1.3-25.1-1.3
	c-12.8,0-23,3.8-30.7,11.3s-11.5,18.1-11.5,31.9V100H87.4v32.7h28.2v83.9h-75c-11.2,0-20.8-4-28.7-11.9S0,187.2,0,176V40.6
	c0-11.2,4-20.8,11.9-28.7S29.4,0,40.6,0H176z"/>
</svg>
